<?xml version="1.0" encoding="utf-8"?>
<!-- Generator: Adobe Illustrator 25.0.0, SVG Export Plug-In . SVG Version: 6.00 Build 0)  -->
<svg version="1.1" id="Layer_1" xmlns="http://www.w3.org/2000/svg" xmlns:xlink="http://www.w3.org/1999/xlink" x="0px" y="0px"
	 viewBox="0 0 97.9 87.4" style="enable-background:new 0 0 97.9 87.4;" xml:space="preserve">
<style type="text/css">
	.st0{fill:#8AD5DD;}
	.st1{fill:#6CB8BC;}
	.st2{fill:#9ADEE2;}
	.st3{fill:#FFFFFF;}
	.st4{fill:#E0E0E0;}
	.st5{fill:#999999;}
	.st6{fill:#DB2B42;}
</style>
<polygon class="st0" points="0,29.6 49,58.5 0,87.4 "/>
<polygon class="st1" points="0,29.6 8.8,22.9 8.8,34.8 "/>
<polygon class="st0" points="97.9,29.6 49,58.5 97.9,87.4 "/>
<polygon class="st1" points="97.9,29.6 89.1,22.9 89.1,34.8 "/>
<polygon class="st2" points="49,58.5 49,58.5 49,58.5 49,58.5 49,58.5 0,87.4 49,87.4 49,87.4 97.9,87.4 "/>
<polygon class="st3" points="9.6,34.3 9.6,0.8 88.3,0.8 88.3,34.3 49,57.6 "/>
<path class="st4" d="M87.5,1.5v32.4L49,56.7L10.4,33.9V1.5H49H87.5 M89.1,0H49H8.8v34.8L49,58.5l40.1-23.7L89.1,0L89.1,0z"/>
<polygon class="st5" points="55.8,38.1 49,45.2 42.1,38.1 44.2,35.9 49,40.9 53.7,35.9 "/>
<rect x="17.1" y="8.6" class="st6" width="22.6" height="19"/>
<g>
	<circle class="st3" cx="28.3" cy="14.2" r="3.3"/>
	<path class="st3" d="M28.2,25.2l-3.2-7c0,0-3.4,0-3.4,3.2s0,3.8,0,3.8S28.2,25.2,28.2,25.2z"/>
	<path class="st3" d="M28.5,25.2l3.2-7c0,0,3.4,0,3.4,3.2s0,3.8,0,3.8S28.5,25.2,28.5,25.2z"/>
	<polygon class="st3" points="28.3,18.3 26,18.3 28.3,23.4 30.7,18.3 	"/>
</g>
<g>
	<rect x="45.2" y="12.2" class="st5" width="36.1" height="2"/>
	<rect x="45.2" y="17.7" class="st5" width="36.1" height="2"/>
	<rect x="45.2" y="23.1" class="st5" width="36.1" height="2"/>
</g>
</svg>
