<svg id="Layer_1" data-name="Layer 1" xmlns="http://www.w3.org/2000/svg" viewBox="0 0 440.82 247.77"><defs><style>.cls-1{fill:none;stroke:#fff;stroke-miterlimit:10;stroke-width:10px;}.cls-2{fill:#f7f9f9;}.cls-3{fill:#fff;}</style></defs><polyline class="cls-1" points="295 167.45 199.67 190.5 156.3 204.86 150.32 214.66 137.17 234.06 137.17 234.06 133.38 205 5 197 5 5 287.79 5 262.96 60.25"/><g id="Layer_2" data-name="Layer 2"><path class="cls-2" d="M324.87,114.62v6.56s.06,10.34-9.36,10.34-9.36-10.34-9.36-10.34V93s-.07-10.34,9.36-10.34S324.87,93,324.87,93V99.6H318.3V93s.26-3.51-2.66-3.51c-2.47,0-2.47,3.51-2.47,3.51v28.14s0,3.51,2.47,3.51c2.92,0,2.66-3.51,2.66-3.51v-6.56Z"/><path class="cls-2" d="M345.34,122.35s.07,9.17-8.45,9.17-8.39-9.36-8.39-9.36V104.28s-.06-9.36,8.39-9.36,8.45,9.17,8.45,9.17Zm-8.45-21.71c-2.41,0-2.21,3.64-2.21,3.64v17.88s-.2,3.57,2.21,3.57,2.28-3.57,2.28-3.57V104.28S339.36,100.64,336.89,100.64Z"/><path class="cls-2" d="M360.09,123.46v-28h6.57V131h-6.57v-3c-.51.32-3,3.51-5.33,3.51-3.51,0-4.94-4-4.94-7V95.44h6.57v28.15c0,1.36.78,1.56,1.56,1.56C359.25,125.15,360.09,123.46,360.09,123.46Z"/><path class="cls-2" d="M378.42,103v28h-6.56V95.44h6.56v3c.52-.32,3.06-3.51,5.33-3.51,3.51,0,4.94,4,4.94,7V131h-6.56V102.85c0-1.36-.78-1.56-1.56-1.56C379.27,101.29,378.42,103,378.42,103Z"/><path class="cls-2" d="M401.11,94.92c7.67-.13,8.38,5.59,8.38,9.62h-6.11c0-1.69-.06-4.16-2.14-4.16-1.76.07-2,2.34-2,4.16,0,2.28,2.28,4.42,4.29,6.37,2.86,2.73,6.05,6.24,6.05,10.86,0,4.42-2.15,9.75-8.39,9.75-8,0-9.16-7-9.16-10.86h6.11c0,1.89.32,5.4,3.05,5.4,1.89,0,2.28-2.21,2.28-4.29s-2.08-4.36-4.1-6.31c-3.05-2.92-6.24-5.78-6.24-10.92C393.11,100.32,394.8,95.05,401.11,94.92Z"/><path class="cls-2" d="M429.9,118.26v4.09s0,9.17-8.51,9.17-8.45-9.36-8.45-9.36V104.28s.06-9.36,8.51-9.36,8.45,9.17,8.45,9.17v10.33H419.05v7.74s0,3.57,2.4,3.57,2.34-3.57,2.34-3.57v-3.9Zm-10.85-9h4.74v-5s.13-3.64-2.34-3.64-2.4,3.64-2.4,3.64Z"/><path class="cls-2" d="M434.26,131V83.22h6.56V131Z"/><path class="cls-3" d="M126.62,90.18v12.74c1.3,0,5.2.19,5.2-6.37S127.92,90.18,126.62,90.18Z"/><path class="cls-3" d="M226.59,100.64c-2.41,0-2.41,3.64-2.41,3.64v5h4.75v-5S229.06,100.64,226.59,100.64Z"/><path class="cls-3" d="M126.62,109.35V124c1.3,0,5.2.52,5.2-7.34S127.92,109.35,126.62,109.35Z"/><path class="cls-3" d="M85.5,70.5v72h209v-72ZM128.25,131H119.6V83.22h6.18c8.38,0,12.8,3.19,12.8,12.68,0,4.42-1,6.95-4.35,9.88,0,0,4.87,2.21,4.87,11.7C139.1,124.5,136.63,130.67,128.25,131ZM160,131H153.4v-3c-.52.32-3.05,3.51-5.33,3.51-3.51,0-4.94-4-4.94-7V95.44h6.56v28.15c0,1.37.79,1.56,1.56,1.56,1.31,0,2.15-1.69,2.15-1.69v-28H160Zm12.67.52c-8,0-9.17-7-9.17-10.85h6.11c0,1.88.33,5.39,3.06,5.39,1.88,0,2.27-2.21,2.27-4.29s-2.08-4.36-4.09-6.31c-3.06-2.92-6.24-5.78-6.24-10.92,0-4.22,1.69-9.49,8-9.62,7.68-.13,8.39,5.59,8.39,9.62h-6.11c0-1.69-.07-4.16-2.15-4.16-1.75.07-2,2.34-2,4.16,0,2.28,2.27,4.42,4.29,6.37,2.86,2.73,6,6.24,6,10.86C181,126.19,178.88,131.52,172.64,131.52Zm18.85-.52h-6.57V95.44h6.57Zm0-41.21h-6.57V83.22h6.57Zm22,41.21H207V102.85c0-1.36-.78-1.56-1.56-1.56-1.3,0-2.15,1.69-2.15,1.69v28h-6.56V95.44h6.56v3c.52-.32,3.06-3.51,5.33-3.51,3.52,0,4.94,4,4.94,7ZM235,114.42H224.18v7.74s0,3.57,2.41,3.57,2.34-3.57,2.34-3.57v-3.9H235v4.09s0,9.17-8.52,9.17-8.45-9.36-8.45-9.36V104.28s.07-9.36,8.52-9.36,8.45,9.17,8.45,9.17Zm12,17.1c-8,0-9.17-7-9.17-10.85h6.11c0,1.88.33,5.39,3.06,5.39,1.88,0,2.27-2.21,2.27-4.29s-2.08-4.36-4.09-6.31c-3.06-2.92-6.24-5.78-6.24-10.92,0-4.22,1.69-9.49,8-9.62,7.67-.13,8.39,5.59,8.39,9.62h-6.11c0-1.69-.07-4.16-2.15-4.16-1.75.07-2,2.34-2,4.16,0,2.28,2.27,4.42,4.29,6.37,2.86,2.73,6,6.24,6,10.86C255.38,126.19,253.24,131.52,247,131.52Zm20,0c-8,0-9.17-7-9.17-10.85H264c0,1.88.33,5.39,3.06,5.39,1.88,0,2.27-2.21,2.27-4.29s-2.08-4.36-4.09-6.31c-3.06-2.92-6.24-5.78-6.24-10.92,0-4.22,1.69-9.49,8-9.62,7.67-.13,8.39,5.59,8.39,9.62h-6.11c0-1.69-.07-4.16-2.15-4.16-1.75.07-2,2.34-2,4.16,0,2.28,2.27,4.42,4.29,6.37,2.86,2.73,6,6.24,6,10.86C275.4,126.19,273.26,131.52,267,131.52Z"/></g><line class="cls-1" x1="268.17" y1="151.24" x2="291.49" y2="167.25"/></svg>