<?xml version="1.0" encoding="utf-8"?>
<!-- Generator: Adobe Illustrator 25.0.0, SVG Export Plug-In . SVG Version: 6.00 Build 0)  -->
<svg version="1.1" id="Layer_3" xmlns="http://www.w3.org/2000/svg" xmlns:xlink="http://www.w3.org/1999/xlink" x="0px" y="0px"
	 viewBox="0 0 200 200" style="enable-background:new 0 0 200 200;" xml:space="preserve">
<style type="text/css">
	.st0{display:none;}
	.st1{display:inline;fill:#D60949;}
	.st2{display:inline;fill:#B70243;}
	.st3{display:inline;fill:#FFD31A;}
	.st4{display:inline;fill:#FF9E1D;}
	.st5{clip-path:url(#SVGID_2_);}
	.st6{fill:#282828;}
	.st7{fill:#2D2D2D;}
	.st8{fill:#FDFAFC;}
	.st9{fill:#FFFFFF;}
	.st10{fill:none;}
	.st11{fill:url(#SVGID_3_);}
	.st12{fill:url(#SVGID_4_);}
	.st13{fill:#040000;}
</style>
<g class="st0">
	<g>
		<path class="st1" d="M181,172.3c0,4.8-3.9,8.7-8.7,8.7H27.7c-4.8,0-8.7-3.9-8.7-8.7V27.6c0-4.8,3.9-8.7,8.7-8.7h144.7
			c4.8,0,8.7,3.9,8.7,8.7V172.3L181,172.3z"/>
		<path class="st2" d="M19,27.6c0-4.8,3.9-8.7,8.7-8.7h144.7c4.8,0,8.7,3.9,8.7,8.7v144.7c0,4.8-3.9,8.7-8.7,8.7"/>
		<polygon class="st3" points="134.5,55.6 103.6,55.6 65.5,111.6 87.8,111.6 65.5,144.4 96.4,144.4 134.5,88.4 112.2,88.4 		"/>
		<polygon class="st4" points="103.6,55.6 80.7,89.3 112.3,121 134.5,88.4 112.2,88.4 134.5,55.6 		"/>
	</g>
</g>
<g>
	<defs>
		<circle id="SVGID_1_" cx="100" cy="101" r="78"/>
	</defs>
	<clipPath id="SVGID_2_">
		<use xlink:href="#SVGID_1_"  style="overflow:visible;"/>
	</clipPath>
	<g class="st5">
		<rect x="16" y="9" class="st6" width="175.1" height="180.6"/>
		<rect x="16" y="56.4" class="st7" width="175.1" height="133.6"/>
		<g>
			<path class="st8" d="M98.5,33.3V34h9.7v0.1l-8.7,17.3h1.1l8.5-17.4v-0.7C109.2,33.3,98.5,33.3,98.5,33.3z"/>
			<path class="st8" d="M119,41.8L119,41.8c2.7-1.3,3.5-3,3.5-4.6c0-2.4-1.8-4.3-4.8-4.3c-2.7,0-5.2,1.7-5.2,4.6
				c0,1.9,1.6,3.3,3.4,4.1v0.1c-2.6,1-4.2,2.8-4.2,5.1c0,2.8,2.6,4.7,5.7,4.7c3,0,5.8-2,5.8-5C123.2,44.5,121.8,42.8,119,41.8z
				 M113.4,37.3c0-2.3,1.9-3.6,4.1-3.6c3,0,3.9,2.1,3.9,3.6c0,2.1-1.5,3.4-3.7,4.1C115.1,40.8,113.4,39.5,113.4,37.3z M117.4,50.9
				c-2.6,0-4.7-1.7-4.7-4.3c0-2.4,2.1-3.9,4.4-4.6c3.3,0.9,5.2,2.1,5.2,4.7C122.2,49,120.4,50.9,117.4,50.9z"/>
			<path class="st8" d="M131.3,33.3l-3.4,2l0.4,0.7l2.9-1.8h0.1v17.1h0.9V33.3H131.3z"/>
			<path class="st8" d="M143.5,40.2c-0.9,0-1.4,0.1-1.8,0.1l1-6.3h7v-0.7H142l-1.3,7.9c0.6-0.1,1.6-0.2,2.7-0.2
				c3.8,0,5.5,2.1,5.5,4.9c0,2.9-2.2,5.1-5.1,5.1c-1.5,0-3.4-1-3.8-1.2l-0.5,0.7c0.8,0.5,2.4,1.2,4.3,1.2c3.2,0,6.1-2.3,6.1-6
				C149.9,41.6,146.4,40.2,143.5,40.2z"/>
			<path class="st8" d="M154.7,49.6c-0.6,0-1,0.5-1,1.1c0,0.4,0.3,0.9,0.9,0.9c0.6,0,1-0.5,1-1C155.7,50,155.3,49.6,154.7,49.6z"/>
			<path class="st8" d="M167.1,45.1V33.3h-0.5l-9.5,12v0.6h9.1v5.5h0.9v-5.5h2.9v-0.7L167.1,45.1L167.1,45.1z M166.2,37.2v7.8h-7.9
				V45l6.4-8c0.4-0.6,0.8-1.1,1.4-2.1l0.1,0C166.2,35.7,166.2,36.4,166.2,37.2z"/>
			<path class="st8" d="M177.7,33.3l-3.4,2l0.3,0.7l3-1.8h0v17.1h0.9V33.3H177.7z"/>
		</g>
		<g>
			<path class="st9" d="M42.4,41.2v-6.8h-1v6.8h-7V42h7v6.9h1V42h7v-0.8H42.4z"/>
		</g>
		<rect x="59.5" y="186.8" class="st10" width="43.5" height="1.3"/>
		<rect x="59.5" y="105.8" class="st10" width="43.5" height="1"/>
		<rect x="103" y="186.8" class="st10" width="43.5" height="1.3"/>
		<rect x="59.5" y="146.3" class="st10" width="43.5" height="1"/>
		<rect x="103" y="105.8" class="st10" width="43.5" height="1"/>
		<rect x="103" y="146.3" class="st10" width="43.5" height="1"/>
		
			<linearGradient id="SVGID_3_" gradientUnits="userSpaceOnUse" x1="146.5476" y1="74.3667" x2="191.0905" y2="74.3667" gradientTransform="matrix(1 0 0 -1 0 202)">
			<stop  offset="9.180000e-02" style="stop-color:#DC731A"/>
			<stop  offset="0.9227" style="stop-color:#D9532D"/>
		</linearGradient>
		<polygon class="st11" points="146.5,66.3 146.5,97 146.5,127.6 146.5,158.3 146.5,189 191.1,189 191.1,158.3 191.1,127.6 
			191.1,97 191.1,66.3 		"/>
		
			<linearGradient id="SVGID_4_" gradientUnits="userSpaceOnUse" x1="81.2517" y1="13.0132" x2="81.2517" y2="135.7354" gradientTransform="matrix(1 0 0 -1 0 202)">
			<stop  offset="0" style="stop-color:#FFFFFF"/>
			<stop  offset="1" style="stop-color:#F8FCFD"/>
		</linearGradient>
		<rect x="16" y="66.3" class="st12" width="130.6" height="122.7"/>
		<g>
			<path class="st9" d="M159.5,85.5v0.9h19.3v-0.9H159.5z M169.1,78.3c-0.8,0-1.5,0.6-1.5,1.4s0.7,1.4,1.5,1.4s1.5-0.6,1.5-1.4
				C170.6,79,170,78.3,169.1,78.3z M169.1,90.8c-0.8,0-1.5,0.6-1.5,1.4s0.7,1.4,1.5,1.4s1.5-0.7,1.5-1.4
				C170.6,91.5,170,90.8,169.1,90.8z"/>
		</g>
		<g>
			<path class="st9" d="M178.1,118.6l-0.7-0.6l-7.5,7.1l-7.5-7.1l-0.7,0.6l7.5,7l-7.5,7l0.7,0.6l7.5-7.1l7.5,7.1l0.7-0.6l-7.5-7
				L178.1,118.6z"/>
		</g>
		<g>
			<path class="st9" d="M160.3,164.6v0.9h19.3v-0.9H160.3z M160.3,169.9v0.9h19.3v-0.9H160.3z"/>
		</g>
		<g>
			<g>
				<g>
					<path class="st13" d="M38.3,93.1V82.5h-0.4l-8.6,10.8v0.5h8.2v4.9h0.8v-4.9H41v-0.7H38.3z M37.5,86.1v7h-7.1V93l5.8-7.2
						c0.4-0.5,0.8-1,1.3-1.9l0.1,0C37.5,84.7,37.5,85.3,37.5,86.1z"/>
					<path class="st13" d="M75.8,88.7c-0.8,0-1.2,0.1-1.6,0.1l0.9-5.7h6.3v-0.7h-7.1l-1.1,7.1c0.6-0.1,1.4-0.2,2.4-0.2
						c3.4,0,4.9,2,4.9,4.4c0,2.6-2,4.6-4.6,4.6c-1.4,0-3-0.9-3.4-1.1l-0.4,0.7c0.7,0.5,2.1,1.1,3.9,1.1c2.9,0,5.5-2.1,5.5-5.4
						C81.5,90,78.3,88.7,75.8,88.7z"/>
					<path class="st13" d="M119.4,88.2c-2.1,0-3.7,1.2-4.5,2.4h-0.1c0.3-3.2,2.7-6.7,6.2-7.5c0.7-0.1,1.3-0.2,1.9-0.2v-0.7
						c-4.4,0-9,3.5-9,10c0,4.5,2.5,6.7,5.4,6.7c3.4,0,5.2-2.8,5.2-5.6C124.5,90.4,122.6,88.2,119.4,88.2z M119.5,98.4
						c-3.4,0-4.6-3.3-4.6-6c0-1.3,2.1-3.5,4.4-3.5c2.5,0,4.4,1.6,4.4,4.6C123.6,96.3,122,98.4,119.5,98.4z"/>
				</g>
				<path class="st13" d="M35.3,120.7l-3,1.8l0.3,0.6l2.7-1.5h0V137h0.8v-16.2L35.3,120.7L35.3,120.7z"/>
				<path class="st13" d="M73.4,136.3L73.4,136.3l1.2-1.2c4.6-4.3,7-6.9,7-10.2c0-1.8-1.1-4.4-4.6-4.4c-1.7,0-3.1,0.7-4.2,1.6
					l0.4,0.5c0.7-0.6,2-1.5,3.6-1.5c3,0,3.9,2.1,3.9,4c0,3.6-4.7,7.6-7,9.9l-1.4,1.5v0.5h9.8v-0.7L73.4,136.3L73.4,136.3z"/>
				<path class="st13" d="M119.7,128.1L119.7,128.1c2.1-0.8,3.2-2.2,3.2-3.9c0-1.8-1.1-3.7-4.2-3.7c-1.5,0-3,0.6-3.8,1.3l0.4,0.6
					c0.7-0.6,1.9-1.2,3.3-1.2c2.5,0,3.4,1.6,3.4,3.2c0,2.4-2.5,3.5-4.5,3.5h-1.1v0.7h1c2.6,0,5.2,1.2,5.2,4.1c0,1.5-0.9,4.1-4.5,4.1
					c-1.6,0-2.9-0.7-3.5-1.1l-0.4,0.6c0.7,0.5,2.2,1.1,3.8,1.1c3.9,0,5.5-2.4,5.5-4.8C123.6,130.1,121.9,128.5,119.7,128.1z"/>
			</g>
			<g>
				<path class="st13" d="M35.5,159.3c-2.6,0-5.4,2.4-5.4,8.5c0,2.6,0.8,8.3,5.1,8.3c3.2,0,5.4-2.7,5.4-8.6
					C40.6,161.6,38.3,159.3,35.5,159.3z M35.3,175.4c-3.4,0-4.3-4.9-4.3-7.8c0-4.5,1.8-7.7,4.4-7.7c3,0,4.3,3.2,4.3,7.7
					C39.7,171.9,38.4,175.4,35.3,175.4z"/>
			</g>
			<circle class="st13" cx="130.7" cy="163.9" r="1.2"/>
		</g>
	</g>
</g>
</svg>
