<?xml version="1.0" encoding="utf-8"?>
<!-- Generator: Adobe Illustrator 25.0.0, SVG Export Plug-In . SVG Version: 6.00 Build 0)  -->
<svg version="1.1" xmlns="http://www.w3.org/2000/svg" xmlns:xlink="http://www.w3.org/1999/xlink" x="0px" y="0px"
	 viewBox="0 0 200 200" style="enable-background:new 0 0 200 200;" xml:space="preserve">
<style type="text/css">
	.st0{display:none;}
	.st1{display:inline;}
	.st2{fill:#D60949;}
	.st3{fill:#B70243;}
	.st4{fill:#FFD31A;}
	.st5{fill:#FF9E1D;}
	.st6{clip-path:url(#SVGID_2_);}
	.st7{fill:#D6D6D6;}
	.st8{fill:#FFFFFF;}
	.st9{fill:#E50914;}
	.st10{fill:#939393;}
	.st11{fill:#C9C9C9;}
</style>
<g id="Layer_2">
</g>
<g id="Layer_3">
	<g class="st0">
		<g class="st1">
			<path class="st2" d="M181,172.3c0,4.8-3.9,8.7-8.7,8.7H27.7c-4.8,0-8.7-3.9-8.7-8.7V27.6c0-4.8,3.9-8.7,8.7-8.7h144.7
				c4.8,0,8.7,3.9,8.7,8.7V172.3L181,172.3z"/>
			<path class="st3" d="M19,27.6c0-4.8,3.9-8.7,8.7-8.7h144.7c4.8,0,8.7,3.9,8.7,8.7v144.7c0,4.8-3.9,8.7-8.7,8.7"/>
			<polygon class="st4" points="134.5,55.6 103.6,55.6 65.5,111.6 87.8,111.6 65.5,144.4 96.4,144.4 134.5,88.4 112.2,88.4 			"/>
			<polygon class="st5" points="103.6,55.6 80.7,89.3 112.3,121 134.5,88.4 112.2,88.4 134.5,55.6 			"/>
		</g>
	</g>
	<g>
		<defs>
			<circle id="SVGID_1_" cx="100" cy="101" r="78"/>
		</defs>
		<clipPath id="SVGID_2_">
			<use xlink:href="#SVGID_1_"  style="overflow:visible;"/>
		</clipPath>
		<g class="st6">
			<rect x="1.4" y="42.3" width="207.2" height="145.1"/>
			<path class="st7" d="M1.4,46.2V20.4c0-3.6,2.9-6.5,6.5-6.5h194.2c3.6,0,6.5,2.9,6.5,6.5v25.8L1.4,46.2L1.4,46.2z"/>
			<polygon class="st8" points="192.2,38.9 70.8,38.9 82.4,21.1 192.2,21.1 			"/>
			<circle class="st9" cx="23.2" cy="29.8" r="5.5"/>
			<circle class="st10" cx="37.8" cy="29.8" r="5.5"/>
			<circle class="st11" cx="52.4" cy="29.8" r="5.5"/>
			<path d="M88.6,26.7l0.8,3.4c0.2,0.8,0.3,1.6,0.5,2.4h0c0.2-0.8,0.4-1.6,0.6-2.4l1-3.4H93l0.9,3.3c0.2,0.9,0.4,1.7,0.6,2.5h0
				c0.1-0.8,0.3-1.6,0.5-2.5l0.8-3.3h1.8l-2.3,7.4h-1.7l-0.9-3c-0.2-0.8-0.4-1.5-0.6-2.4h0c-0.2,0.9-0.3,1.6-0.6,2.4l-0.9,3h-1.8
				l-2.2-7.4H88.6z"/>
			<path d="M100.3,26.7l0.8,3.4c0.2,0.8,0.3,1.6,0.5,2.4h0c0.2-0.8,0.4-1.6,0.6-2.4l1-3.4h1.5l0.9,3.3c0.2,0.9,0.4,1.7,0.6,2.5h0
				c0.1-0.8,0.3-1.6,0.5-2.5l0.8-3.3h1.8l-2.3,7.4h-1.7l-0.9-3c-0.2-0.8-0.4-1.5-0.6-2.4h0c-0.2,0.9-0.3,1.6-0.6,2.4l-0.9,3h-1.8
				l-2.2-7.4H100.3z"/>
			<path d="M111.9,26.7l0.8,3.4c0.2,0.8,0.3,1.6,0.5,2.4h0c0.2-0.8,0.4-1.6,0.6-2.4l1-3.4h1.5l0.9,3.3c0.2,0.9,0.4,1.7,0.6,2.5h0
				c0.1-0.8,0.3-1.6,0.5-2.5l0.8-3.3h1.8l-2.3,7.4h-1.7l-0.9-3c-0.2-0.8-0.4-1.5-0.6-2.4h0c-0.2,0.9-0.3,1.6-0.6,2.4l-0.9,3h-1.8
				l-2.2-7.4H111.9z"/>
			<path d="M121.3,33.1c0-0.7,0.5-1.2,1.2-1.2c0.7,0,1.2,0.5,1.2,1.2c0,0.7-0.5,1.2-1.2,1.2C121.8,34.3,121.3,33.8,121.3,33.1z"/>
			<polygon class="st9" points="140,185.7 69.9,185.7 79.6,178.3 130.3,178.3 			"/>
			<rect x="1.4" y="183.8" width="207.2" height="5.2"/>
			<polygon class="st9" points="204.4,183.8 177.8,183.8 166.2,183.8 43.7,183.8 32.2,183.8 5.5,183.8 1.4,183.8 1.4,189 208.6,189 
				208.6,183.8 			"/>
			<polygon points="179.6,35.3 178.4,34.2 182.4,30.1 178.2,25.9 179.3,24.8 184.7,30 			"/>
			<rect x="172" y="29.2" width="10.7" height="1.6"/>
			<g>
				<path class="st8" d="M32.4,123.3c0-3.4,2.4-5.8,5.6-5.8c3.3,0,5.6,2.4,5.6,5.8c0,3.3-2.2,5.8-5.6,5.8
					C34.7,129.1,32.4,126.6,32.4,123.3z"/>
				<path class="st8" d="M77.1,127.2c-1.9,0.9-5.7,1.8-10.1,1.8c-11.2,0-18.4-7.1-18.4-18.2c0-10.7,7.3-19.1,19.9-19.1
					c3.3,0,6.7,0.7,8.7,1.7l-1.6,6.8c-1.5-0.7-3.6-1.4-6.8-1.4c-6.9,0-11,5.1-10.9,11.6c0,7.3,4.8,11.5,10.9,11.5
					c3.2,0,5.4-0.7,7.1-1.4L77.1,127.2z"/>
				<path class="st8" d="M117.1,110.1c0,13.1-9.2,19-18.4,19c-10.1,0-17.9-7-17.9-18.4c0-11.7,7.7-18.9,18.5-18.9
					C110,91.7,117.1,99.2,117.1,110.1z M90.2,110.4c0,6.9,3.4,12.1,8.9,12.1c5.1,0,8.7-5.1,8.7-12.3c0-5.6-2.5-12-8.7-12
					C92.8,98.3,90.2,104.5,90.2,110.4z"/>
				<path class="st8" d="M124.5,103.2c0-4.1-0.1-7.6-0.3-10.6h7.8l0.4,5.3h0.2c1.8-2.8,5-6.1,11-6.1c4.7,0,8.4,2.6,9.9,6.6h0.1
					c1.2-2,2.7-3.5,4.4-4.5c2-1.4,4.3-2.1,7.2-2.1c5.9,0,12,4,12,15.5v21.1h-8.8v-19.7c0-5.9-2.1-9.5-6.4-9.5
					c-3.1,0-5.4,2.2-6.3,4.8c-0.2,0.9-0.4,2-0.4,3v21.4h-8.8v-20.7c0-5-2-8.5-6.2-8.5c-3.4,0-5.6,2.6-6.5,5.1
					c-0.4,0.9-0.5,1.9-0.5,2.9v21.1h-8.8L124.5,103.2L124.5,103.2L124.5,103.2z"/>
			</g>
		</g>
	</g>
</g>
</svg>
