<?xml version="1.0" encoding="iso-8859-1"?>
<!-- Uploaded to: SVG Repo, www.svgrepo.com, Generator: SVG Repo Mixer Tools -->
<svg version="1.1" id="Layer_1" xmlns="http://www.w3.org/2000/svg" xmlns:xlink="http://www.w3.org/1999/xlink" 
	 viewBox="0 0 512 512" xml:space="preserve">
<rect y="109.852" width="512" height="358.496"/>
<path style="fill:#D6D6D6;" d="M0,119.372V55.636c0-8.8,7.2-16,16-16h479.96c8.8,0,16,7.2,16,16v63.728H0V119.372z"/>
<polygon style="fill:#FFFFFF;" points="471.624,101.508 171.536,101.508 200.24,57.508 471.624,57.508 "/>
<circle style="fill:#E50914;" cx="53.904" cy="78.908" r="13.608"/>
<circle style="fill:#939393;" cx="89.976" cy="78.908" r="13.608"/>
<circle style="fill:#C9C9C9;" cx="126.056" cy="78.908" r="13.608"/>
<path d="M215.624,71.244l1.912,8.312c0.416,1.952,0.832,3.944,1.168,5.936h0.08c0.376-1.992,0.976-4.024,1.504-5.896l2.368-8.352
	h3.76l2.296,8.128c0.56,2.144,1.048,4.136,1.464,6.128h0.08c0.296-1.992,0.712-3.984,1.2-6.128l2.032-8.128h4.544l-5.752,18.312
	h-4.288l-2.176-7.448c-0.56-1.912-0.976-3.648-1.392-5.864h-0.08c-0.376,2.256-0.856,4.064-1.392,5.864l-2.328,7.448h-4.328
	l-5.416-18.312H215.624z"/>
<path d="M244.392,71.244l1.912,8.312c0.416,1.952,0.832,3.944,1.168,5.936h0.08c0.376-1.992,0.976-4.024,1.504-5.896l2.368-8.352
	h3.76l2.296,8.128c0.56,2.144,1.048,4.136,1.464,6.128h0.08c0.296-1.992,0.712-3.984,1.2-6.128l2.032-8.128h4.544l-5.752,18.312
	h-4.288l-2.176-7.448c-0.56-1.912-0.976-3.648-1.392-5.864h-0.08c-0.376,2.256-0.856,4.064-1.392,5.864l-2.328,7.448h-4.328
	l-5.416-18.312H244.392z"/>
<path d="M273.16,71.244l1.912,8.312c0.416,1.952,0.832,3.944,1.168,5.936h0.08c0.376-1.992,0.976-4.024,1.504-5.896l2.368-8.352
	h3.76l2.296,8.128c0.56,2.144,1.048,4.136,1.464,6.128h0.08c0.296-1.992,0.712-3.984,1.2-6.128l2.032-8.128h4.544l-5.752,18.312
	h-4.296l-2.176-7.448c-0.56-1.912-0.976-3.648-1.392-5.864h-0.08c-0.376,2.256-0.856,4.064-1.392,5.864l-2.328,7.448h-4.328
	l-5.416-18.312H273.16z"/>
<path d="M296.312,87.004c0-1.736,1.2-2.968,2.856-2.968c1.696,0,2.856,1.2,2.856,2.968c0,1.688-1.128,2.968-2.856,2.968
	C297.488,89.972,296.312,88.692,296.312,87.004z"/>
<polygon style="fill:#E50914;" points="342.688,464.212 169.312,464.212 193.312,445.964 318.688,445.964 "/>
<rect y="459.596" width="512" height="12.768"/>
<polygon style="fill:#E50914;" points="501.744,459.588 435.928,459.588 407.336,459.588 104.664,459.588 76.072,459.588 
	10.256,459.588 0,459.588 0,472.356 512,472.356 512,459.588 "/>
<polygon points="440.352,92.508 437.496,89.708 447.384,79.548 436.904,69.324 439.696,66.468 453.04,79.468 "/>
<rect x="421.616" y="77.508" width="26.416" height="4"/>
<g>
	<path style="fill:#FFFFFF;" d="M76.768,309.948c0-8.344,5.808-14.328,13.792-14.328c8.168,0,13.784,5.808,13.784,14.328
		c0,8.168-5.44,14.328-13.784,14.328C82.392,324.276,76.768,318.116,76.768,309.948z"/>
	<path style="fill:#FFFFFF;" d="M187.232,319.564c-4.72,2.168-13.968,4.528-25.032,4.528c-27.576,0-45.528-17.592-45.528-44.984
		c0-26.488,18.144-47.168,49.16-47.168c8.168,0,16.504,1.816,21.584,4.168l-3.992,16.688c-3.624-1.632-8.888-3.448-16.864-3.448
		c-17.056,0-27.208,12.512-27.032,28.664c0,18.144,11.792,28.48,27.032,28.48c7.8,0,13.24-1.632,17.592-3.448L187.232,319.564z"/>
	<path style="fill:#FFFFFF;" d="M286.08,277.3c0,32.472-22.856,46.976-45.352,46.976c-25.032,0-44.256-17.224-44.256-45.528
		c0-29.016,19.048-46.8,45.712-46.8C268.488,231.948,286.08,250.452,286.08,277.3z M219.504,278.204
		c0,17.048,8.344,29.928,21.952,29.928c12.696,0,21.584-12.512,21.584-30.296c0-13.784-6.168-29.56-21.408-29.56
		C225.848,248.276,219.504,263.508,219.504,278.204z"/>
	<path style="fill:#FFFFFF;" d="M304.384,260.244c0-10.16-0.176-18.68-0.72-26.304h19.224l0.904,13.064h0.544
		c4.352-6.888,12.328-15.056,27.2-15.056c11.608,0,20.68,6.528,24.496,16.328h0.36c3.088-4.896,6.712-8.528,10.88-11.072
		c4.896-3.448,10.52-5.256,17.784-5.256c14.696,0,29.56,9.976,29.56,38.272v52.064h-21.768v-48.8c0-14.696-5.08-23.4-15.784-23.4
		c-7.616,0-13.24,5.44-15.6,11.792c-0.536,2.176-1.088,4.896-1.088,7.44v52.968h-21.768v-51.16c0-12.336-4.896-21.04-15.24-21.04
		c-8.344,0-13.96,6.528-15.96,12.696c-0.904,2.176-1.264,4.72-1.264,7.256v52.24h-21.776v-62.032L304.384,260.244L304.384,260.244z"
		/>
</g>
</svg>