<?xml version="1.0" encoding="utf-8"?>
<!-- Generator: Adobe Illustrator 25.0.0, SVG Export Plug-In . SVG Version: 6.00 Build 0)  -->
<svg version="1.1" id="Layer_3" xmlns="http://www.w3.org/2000/svg" xmlns:xlink="http://www.w3.org/1999/xlink" x="0px" y="0px"
	 viewBox="0 0 200 200" style="enable-background:new 0 0 200 200;" xml:space="preserve">
<style type="text/css">
	.st0{display:none;}
	.st1{display:inline;}
	.st2{fill:#D60949;}
	.st3{fill:#B70243;}
	.st4{fill:#FFD31A;}
	.st5{fill:#FF9E1D;}
	.st6{clip-path:url(#SVGID_2_);}
	.st7{fill:url(#SVGID_3_);}
	.st8{opacity:0.2;}
	.st9{fill:#040000;}
	.st10{fill:#CECECF;}
	.st11{fill:#F7D072;}
	.st12{opacity:0.2;fill:#FFFFFF;enable-background:new    ;}
	.st13{fill:#717070;}
	.st14{fill:#DC3B39;}
	.st15{fill:#E6AB2D;}
	.st16{fill:#D67261;}
	.st17{opacity:0.2;fill:#040000;enable-background:new    ;}
</style>
<g class="st0">
	<g class="st1">
		<path class="st2" d="M181,172.3c0,4.8-3.9,8.7-8.7,8.7H27.7c-4.8,0-8.7-3.9-8.7-8.7V27.6c0-4.8,3.9-8.7,8.7-8.7h144.7
			c4.8,0,8.7,3.9,8.7,8.7V172.3L181,172.3z"/>
		<path class="st3" d="M19,27.6c0-4.8,3.9-8.7,8.7-8.7h144.7c4.8,0,8.7,3.9,8.7,8.7v144.7c0,4.8-3.9,8.7-8.7,8.7"/>
		<polygon class="st4" points="134.5,55.6 103.6,55.6 65.5,111.6 87.8,111.6 65.5,144.4 96.4,144.4 134.5,88.4 112.2,88.4 		"/>
		<polygon class="st5" points="103.6,55.6 80.7,89.3 112.3,121 134.5,88.4 112.2,88.4 134.5,55.6 		"/>
	</g>
</g>
<g>
	<defs>
		<circle id="SVGID_1_" cx="100" cy="101" r="78"/>
	</defs>
	<clipPath id="SVGID_2_">
		<use xlink:href="#SVGID_1_"  style="overflow:visible;"/>
	</clipPath>
	<g class="st6">
		<g>
			
				<linearGradient id="SVGID_3_" gradientUnits="userSpaceOnUse" x1="69" y1="179.4903" x2="69" y2="23.8857" gradientTransform="matrix(1 0 0 -1 0 202)">
				<stop  offset="0" style="stop-color:#297BA4"/>
				<stop  offset="1" style="stop-color:#2F5F71"/>
			</linearGradient>
			<path class="st7" d="M183.5,29.8v141c0,4-3.3,7.3-7.3,7.3H-38.2c-4,0-7.3-3.3-7.3-7.3v-141c0-4,3.3-7.3,7.3-7.3h214.4
				C180.2,22.5,183.5,25.8,183.5,29.8z"/>
			<g class="st8">
				<path class="st9" d="M88.4,68.7c-0.5-0.6-0.8-1.1-1.4-0.8s-0.6,0.7-1.3,0.2c-0.6-0.5-0.4-1.1-1.8-1.6c-1.5-0.5-1.8-0.8-3.3-1.1
					C79,65.2,77.8,65,77.7,65c-0.1,0,0.3,0.3-0.3,0.6c-0.6,0.3-1.1,0.4-1.7,0c-0.6-0.4-0.6-0.5-1.6-0.4c-1.1,0.1-1.7,0.3-2.1,0.4
					c-0.5,0.1,0,0-0.7-0.5s-0.2-0.8-1.5-0.7c-1.2,0.1-1.8,0.2-2.1,0c-0.3-0.2,0.1-1-1.1-1.4s-1.5-0.1-2.1-0.2
					c-0.6-0.1-0.6-0.2-2.4-0.4c-1.8-0.1-1.7,0.2-2.9,0.5c-1.2,0.4-1.5,0.4-2.6,0.3c-1.1-0.1-0.8,0.6-1.5,0.7c-0.7,0.1-1.8-0.6-1.9-1
					c-0.1-0.4,0.9-0.8,0-1.2s-2.7-1.1-3-1c-0.3,0.1-0.2,0.7-0.8,0.8c-0.6,0.2-1.4,0.2-2.4-0.3c-1-0.4-1.3-0.6-2.4-0.6
					c-1,0.1-1.6,0.4-2.4,0.4c-0.9,0.1-1.4-0.3-0.8-0.6c0.6-0.3,1.3-1.1,1.3-1.5c0-0.4,0.4-1.3-0.6-1.4c-1-0.1-1.2,0.6-2.1,0
					s-2.1-0.6-2.5-0.4c-0.3,0.2-0.3,0.5-0.9,0.6c-0.6,0.1-0.4,0.6-1.1,0.8c-0.7,0.2-0.6-0.4-2.3-0.2c-1.6,0.2-3.2,0.4-3.6,0.8
					c-0.4,0.5,0.1,1-0.8,1.4c-0.9,0.4-2.8,0.1-3.1,0.4c-0.2,0.3,1.1,1.5,0.2,2c-0.9,0.5-1.5-0.4-3.5,0c-2.1,0.4-1.8,0.3-2.6,0.8
					c-0.8,0.5-0.9,0.2-1.4,0.8c-0.5,0.6-1.9,1.2-2.8,1.2s-1.4-0.6-2.6-0.1c-1.2,0.5-1.1,0.8-3,0.7c-1.9-0.2-2.8-0.1-3.1,0.1
					c-0.4,0.2-0.4,0.9-1.3,1.1c-1,0.3-2.4,0.8-2.8,0.7S1.3,69,0.4,69.1c-0.9,0.1-1.4,0-1.6-0.3c-0.3-0.3-0.6-0.9-0.2-0.7
					c0.4,0.2,0.8,0.4,1.6,0.4c0.8,0,1.6-0.6,1.5-1c-0.2-0.3,0-0.8-1.5-1.2s-2.2-0.3-3.3-1.1s0.4-1.4-2.6-1.1c-3,0.3-3.8,0.6-5,1.5
					c-1.2,0.9-1.5,1.7-2.7,2.8c-1.2,1.1-0.8,1.4-2.4,2.2s-1.8,0.4-2.3,1.6c-0.5,1.2-0.8,2.5,0.2,2.8c1,0.2,1.9-0.2,2.4-0.4
					c0.5-0.2,0.9,0.2,0.9,0.7s0.1,1.5,0.7,1.6c0.6,0.1,1.9-0.7,1.9-1.6c-0.1-0.9-0.3-1.5,0.3-2.4c0.6-0.9,1-1.5,1.7-1.9
					c0.6-0.3,1.5-0.9,1.2-0.2c-0.3,0.7-1,1.5-0.5,2.3c0.4,0.7,1.4,0.2,1.7,0.9c0.2,0.7-0.3,1.4-0.5,1.6c-0.2,0.2,0.4,0.6-0.3,1.1
					c-0.7,0.5-1.2,1-1.9,1.6c-0.8,0.6-3.1,1-3.6,0.9c-0.5-0.1-1.4,0-1.5-0.7c-0.1-0.7,0.8-1.5-0.1-1.8c-0.9-0.3-1.8,0.1-2.1,1.3
					c-0.3,1.2-0.7,1.4-1.4,2c-0.7,0.6-0.1,2.4-2.2,2.7c-2.1,0.3-3.2-0.2-3.1,0.6s1.5,0.3,1.5,1.5c0,1.2,0.3,1.7-0.6,1.9
					s-1.1-0.2-2.3,0.2c-1.2,0.4-1.1,1.9-1.4,2.6c-0.2,0.6-0.4,1.2,0.4,1.5c0.8,0.3,2.1,0.8,3.1,0.4s1.5-0.5,1.6-1.2
					c0.1-0.7,0.4-1.2,1.1-1.3c0.6-0.1,1.1-0.9,1.5-1.3c0.4-0.4,0-0.3,1-0.2s1.9-1,2.2-0.7c0.3,0.3,1.4,0.9,2,1.5
					c0.6,0.6,1.5,0.8,1.4,1.7c-0.2,0.9-0.2,2,0.4,1.7c0.6-0.3,0.4-1.1,0.8-1.5c0.4-0.4,0.9,0,0.9-0.7s-1.1-0.9-1.7-1.5
					c-0.6-0.6-1-1.4-0.3-1.1c0.7,0.2,2,0.8,2.1,1.3c0.1,0.5,1.3,1.5,1.4,2.5c0.1,1,0.8,1.8,1.1,1.3c0.3-0.5,0-0.9,0.7-1
					c0.7-0.1,0.4-0.6,0.8-1.3c0.4-0.6,1.4,0.3,1.8-0.9c0.4-1.2-0.5-1.6,0.5-2.3c0.9-0.7,1.3-1.1,1.6-0.5c0.3,0.6,1,1.2,1.3,0.6
					c0.3-0.6-0.6-0.8,0.2-1.3c0.8-0.5,1.5-1,1.3-0.2s-0.5,1.3,0,1.9c0.6,0.6,2.2,0.9,1.3,1.4c-0.9,0.5-2.2,0.2-3.4,0.7
					c-1.2,0.5-1.4,0.3-1.7,1.3c-0.3,1-0.3,1.3,0.7,1.3c1,0,1.5-0.7,1.8,0.2c0.3,0.9,0.2,2.9-0.2,3.1c-0.4,0.2-0.6-0.1-2.5,0.1
					C-6,95-5.9,95.4-7.5,94.7c-1.5-0.8-1.9-1.7-2.5-0.8c-0.6,1-0.2,1.4-1.4,1.2c-1.2-0.2-0.3-0.8-1.9-1.2c-1.6-0.4-1.9-0.3-1.9-1
					s0.2-1.6-1.1-1.7s-3.5,0.4-5.3,1c-1.8,0.5-1.5-0.1-3.6,0.6c-2.1,0.7-3.4,1-3.6,2.1c-0.2,1.1-0.9,1.8-1.4,2.4
					c-0.5,0.6-0.7,3.3-0.8,5c-0.1,1.7,0.3,0.9-0.2,2.1c-0.5,1.2,0.8,3.2,1.4,3.7c0.5,0.5,2.2,2.2,3.3,2.3c1.1,0.1,1-0.4,2.7-0.2
					s1.6-0.7,3.3-0.3c1.7,0.4,2.3,0.7,3.3,1.3c1,0.5,1.1,1,1.1,2.2c0,1.3,0.1,0.3,1,2.1c0.9,1.8,2.5,3.5,1.5,5
					c-0.9,1.5-1.3,1.8-0.7,3.3c0.6,1.5,2.2,4.4,2.4,5.9c0.2,1.5-0.3,1.6-0.1,2.5s1.9,1.9,3.4,1.3c1.5-0.6,2-0.6,3.2-1.8
					c1.2-1.1,2.5-0.3,3.4-2.7c0.9-2.4,0.6-2.7,1-3.6c0.4-1,2.8-2.4,2.9-4.1c0.1-1.7-0.5-3-0.3-4.7c0.2-1.7,0.4-3.1,2-4.5
					c1.6-1.3,2,0,3.1-2.5s2.4-3.1,1.2-3.1s-3.7,1-4.7,0.5c-1-0.6-2.7-3.1-3-4.3c-0.3-1.2-0.2-0.6-0.8-2.3C-1.2,98.9-1.7,98-2,97.4
					c-0.2-0.6-0.4-1.8,0.3-0.9s1.5,2.3,2.4,4.5s1.6,3.8,2.4,4.1s1.1,0.7,2.4,0.2c1.3-0.5,1.8-0.6,3-1.3c1.2-0.7,2-0.8,2.9-1.7
					c0.9-0.9,2.9-1.3,0.7-2.1c-2.3-0.9-3-0.4-3.7-1.4c-0.6-1-1.7-2-0.7-1.8c1,0.2,0.6,0.4,1.7,0.6c1.1,0.2,1.9-0.3,2.4,0.5
					c0.6,0.8,1.6,1.3,2.5,0.9c0.9-0.4,1.3-0.7,2.3-0.1c1,0.6,0.3,2.1,1.8,2.6c1.5,0.4,1.7-1.2,2,0.9c0.3,2,0.9,3.9,1.4,4.3
					c0.5,0.4-0.3,2.3,1.4,1.8c1.7-0.5,2.2-0.4,2.2-2.2s-0.1-2.2,0.8-2.8c0.9-0.6,2.1-1.2,2.7-1.9c0.6-0.6,0.2-1.1,1.3-0.9
					c1.1,0.1,3.9,3.2,3.7,3.9c-0.1,0.6-0.2,0.9,0.3,1.3c0.5,0.4,0.5,0.5,0.9,2c0.4,1.5,0.3,1.2,1.6,2.6c1.3,1.4,3.1,2.3,2.9,1.3
					c-0.2-1-0.8-0.9-1.3-2.4c-0.6-1.6-1.2-3-0.5-2.6c0.7,0.4,0.5,1,1.3,1.1c0.8,0.1,0.9-0.8,1.5-1.1c0.6-0.3,1.6-2.5,0.8-3.5
					c-0.8-1-1.7-1.7-0.8-2c0.9-0.3,0.5-0.1,1.5,0.1c1,0.2,0.7-0.3,1.9-0.6c1.2-0.3,3-0.9,4-2.1s2-1.6,1.7-3.2
					c-0.3-1.6-0.6-2.4-1.2-2.8c-0.6-0.4-0.6-0.7-0.1-0.9c0.5-0.2,1.9-0.2,1.1-0.6c-0.8-0.4-0.4-0.2-1.3-0.4s-1.9,0.2-1.1-0.5
					c0.8-0.7,1.4-1.4,1.4-1.4s-0.2,0.2,0.3,0.7s0.9,0.3,1.1,0.2c0.2-0.1,1-0.6,1.1-0.1c0.1,0.6-1,1-0.3,1.2c0.6,0.2,1.2-0.3,0.9,0.8
					c-0.2,1.1,0.2,2.1,0.8,1.6c0.5-0.6,1.3-2.2,1.1-2.9c-0.2-0.7-0.7-0.3,0-1.6s0.7-2.1,1.7-1.9c1,0.2,1.9-0.8,2.3-1.1
					s1.9-1.2,2.2-2.3c0.2-1.1,0.1-1.2,0.5-2.4c0.3-1.2,1.1-1.2,0.2-1.8c-0.9-0.6-1.6-0.4-1.8-1.1c-0.2-0.6,2.5-3.6,3.6-4.1
					c1.1-0.5,1.9-0.2,2.7,0.1c0.8,0.3,1,0.7,1.7,0.2s1.2-0.7,1.6-0.7c0.4,0,1.5-0.9,2-0.5c0.5,0.4,0.5,0.8,1.1,0.5
					c0.6-0.2,1.3-1.5,1.5-1.1c0.2,0.5,0.2,1-0.5,1.9s-1.3,1.1-2.1,1.8c-0.9,0.7-1.2,1.5-1.2,2.1s-0.2,2.8,0.1,2.8
					c0.3,0,0.4-0.1,1.3-1.2c0.9-1.1,1.4-1.2,1.9-1.6c0.6-0.4,0.8-1,0.9-2s-0.6-1.3,0.4-1.8c1-0.5,2.1-1.1,3.1-0.9
					c1,0.2,0.7,0.1,1.5-0.6s1.2-1.2,1.9-1.1s1.9,0.2,2.1-0.2s0-0.7,0.1-1.2s0-0.7,0.7-0.9s0.7-0.4,1-0.6c0.3-0.1,0.6,0.2,1.1,0.5
					s1.9,0.2,2.2-0.2C87.9,69,88.4,68.7,88.4,68.7z"/>
				<path class="st9" d="M61.2,85.5c0.4,0.1,1.2,0.8,1.6,0.7c0.5,0,0.7,0.6,0.3,0.6s-1.6,0.6-1.6,0.6s-0.4-0.5-0.6,0
					c-0.2,0.5-0.3,0.8-0.3,1.1c0.1,0.3,0.5,1.1,0.2,1.5c-0.2,0.4-0.6,0.6-0.6,1.1c0,0.5,0.3,1-0.1,1.2c-0.4,0.2-0.9,0.3-1.2,0.4
					c-0.4,0.1-0.6,0.2-0.8,0.5c-0.2,0.3-0.5,0.8-1.3,0.8c-0.8,0-0.8-0.6-1.5-0.1c-0.7,0.6-0.7,0.9-1.1,0.8c-0.4-0.2-0.1-0.4,0-1
					c0.1-0.6-1.3-0.4,0-1.1c1.2-0.7,1.2-0.8,2.1-0.9c0.8-0.1,1.3,0.3,1.6-0.4c0.3-0.7,0-1,0.7-1c0.7,0,1.1,0.3,1.2-0.5
					c0.1-0.8,0-1.4,0-1.9c0-0.5-0.2-1,0.3-1.1c0.6-0.2,0.6,0.2,0.7-0.3C61,86.2,60.7,85.3,61.2,85.5z"/>
				<path class="st9" d="M48.8,102.3c0.6,0.1,0.9,1.1,0.7,1.6c-0.2,0.4-0.4,0.9,0.2,1c0.5,0.1,0.9,0.2,0.9,0.5s0.2-0.4,0.6,0.6
					c0.4,1,0,1.1,0.5,1.9c0.5,0.7,1,1.1,0.4,1.5c-0.6,0.4-0.2,0.8-0.8,0.6c-0.7-0.2-0.4-0.1-0.7-0.7c-0.3-0.6-0.6-0.1-0.9-0.2
					c-0.3,0-0.4,0-0.2-0.5c0.2-0.4,0.4-0.4,0.1-0.9c-0.3-0.5,0.2-1.1-0.2-1.2c-0.4-0.1-0.5,0.6-1.2,1c-0.7,0.4-1.8,0.6-1.7,0.4
					c0-0.2,0.4-0.4,1.1-1.2c0.6-0.8,1.1-0.3,0.9-1.5c-0.1-1.2-0.6-0.9-0.2-1.8C48.6,102.6,48.8,102.3,48.8,102.3z"/>
				<path class="st9" d="M46.8,109.3c0.5,0.5,1.1,0.3,0.9,0.8c-0.2,0.5-0.7,0.5-0.4,1c0.3,0.5,0.6,1.1,1,1.1s0.4-0.4,1.4-0.4
					c1,0,1.6-0.2,1.7,0.2c0.1,0.4-0.4,0.4-1.1,1c-0.6,0.6-1.3,1.2-0.8,1.5c0.5,0.4,0.7,1.1,0.6,1.3c-0.2,0.2-0.4,0.5,0.1,0.8
					c0.4,0.3,2.5,0.2,2,1c-0.5,0.7-1.7,1.1-3,1.2s-0.2-0.3-2.8-0.6s-3,0.4-4.8-0.5c-1.8-0.9-3-0.1-4-1.7c-1-1.6-0.6-0.8-1.8-2.4
					c-1.2-1.6-0.6-1.6-1.7-2.3c-1.1-0.6-1.9-1.6-1.2-1.6c0.7,0,0.4-0.8,2.6,1s1.6,1.7,3.2,2.8c1.6,1.1,2.1,1.2,2.7,1.1
					c0.6-0.1,1.5,0,0.9-0.7c-0.6-0.7-0.9-1.6-0.4-1.8c0.5-0.2,0.4,0.6,1.2-0.2s0.8-1.1,1.5-1.3c0.7-0.3,0.3,0,1-0.4
					C46.1,109.8,46.3,108.8,46.8,109.3z"/>
				<path class="st9" d="M55.3,112.9c0.3,0.4,0.9,1,1.1,1.5c0.2,0.5,0.7-0.4,1.6-0.4c0.9,0,2.2,0.5,2.8,0.8c0.6,0.2,1.5,0.4,2.1,1.2
					c0.6,0.8,1,0.3,1.1,1.1c0,0.8,0.2,0.7,0.7,1.2c0.5,0.5,0.6,1.3-0.3,1c-0.9-0.4-1.2-1.6-2.2-1.5c-1,0.1-0.6,0.4-1.4,0.6
					c-0.8,0.2-1.1-0.1-2-0.2c-0.9-0.1-1.6,0.2-1.2-0.6c0.4-0.8,0.7-0.9-0.8-1.5c-1.5-0.6-2.1-0.3-2.1-1s0.2-0.7-0.3-1.3
					c-0.6-0.6-0.8-1-0.4-1.2C54.4,112.3,55.1,112.6,55.3,112.9z"/>
				<path class="st9" d="M57.1,121.8c1,0.5,1.4,1.6,1.9,1.4c0.5-0.2,0.3-0.5,0.7-1.6c0.4-1.1,0.4-2.3,0.9-1.8c0.5,0.5,0,1.4,0.8,1.7
					c0.7,0.3,0.9,0.5,1.1,1.4c0.2,0.9,0.3,0.6,1.1,1.5c0.8,0.9,1.5,0.7,1.6,1.8c0.1,1,1.4,2.1,1.5,3.1c0.1,1.1,0.2,1.8-0.5,3.1
					c-0.8,1.3-1.1,2-1.3,2.6c-0.2,0.6-1,0.8-1.8,0.8c-0.8,0-1.3-0.3-1.8-0.2c-0.5,0.1-0.8,0.7-1.4,0.3s-0.9-1-1.1-1.3
					c-0.2-0.3-0.3-1.5-1.1-1.4c-0.9,0.1-0.7,0.6-1.3,0c-0.5-0.6-0.2-1-1.7-1.3c-1.5-0.2-1.9-0.4-2.6-0.2c-0.6,0.2-1.3,0.4-2,0.9
					c-0.7,0.6-1.8,0.3-2.4,0.6c-0.6,0.3-1.5,0.9-2.2,0.5s-0.4-0.6-0.4-1.4c0-0.9,0-0.3-0.5-1.8c-0.4-1.5-0.2-1.3-0.6-2
					c-0.4-0.7-0.7-0.4-0.2-1.4c0.6-1,0.4-1.2,0.7-1.6c0.3-0.3,0.6,0.1,1.6-0.6c1.1-0.7,1.4-0.4,2.3-0.8c1-0.4,1.2-1.8,1.8-2.2
					c0.6-0.4,0.7-0.8,1.2-0.8c0.4,0,0.9,0.2,1.7,0.6s0.6,0.3,1.3-0.4c0.6-0.7,0-1.4,1.2-1.3c1.2,0.1,1.6-0.1,1.8,0.6
					C57.2,121.3,57.1,121.8,57.1,121.8z"/>
				<path class="st9" d="M78.6,136.4c0.6-0.8,0.9-0.9,0.7-1.8c-0.2-0.9-0.2-1.7,0.6-0.8c0.8,0.8,1.7,1.3,2.3,1.3
					c0.6,0,2.1,0.5,0.6,1.6c-1.5,1.1-1.2,0.3-2.4,2c-1.2,1.7-0.3,1.7-1.7,2.6c-1.5,0.8-3.1,1.2-2.8,0.5c0.3-0.7,0.2-0.7,1.5-1.7
					s2.2-1.7,2.2-2.6C79.6,136.7,78.6,136.4,78.6,136.4z"/>
				<path class="st9" d="M4.7,128.1c-0.6-0.8-0.6-1.1-0.6-2.4c-0.1-1.3-0.5-1.9,0-2.7s1.8-2,2.3-2.8c0.5-0.9,0.6-2.7,0.9-1.1
					c0.3,1.7,1.3,2.7-0.2,4.9C5.7,126.3,4.7,128.1,4.7,128.1z"/>
				<path class="st9" d="M-25,82c-0.1-0.2,0.4-1.1,0.4-1.1s0.7-0.4,0.5-1.7c-0.2-1.4-0.3-0.6-0.8-1.9c-0.5-1.3-1.2-1.1-0.5-1.9
					c0.7-0.9,1.6-2.2,1.8-1.1c0.2,1.1-0.2,1.7,0.2,2.2c0.4,0.5,1.3,0.6,1.8,1.4c0.5,0.8,2.5,1.1,1,2.2c-1.5,1.1-2.2,0.4-2.7,1.1
					C-23.9,82-25,82-25,82z"/>
				<path class="st9" d="M-27,81c1-0.6,1.4-0.4,1.3-1.4c-0.1-1,0.6-1.9-0.4-1.9c-1.1-0.1-1.4,0.6-1.5,1c-0.1,0.4-0.1,0.6,0.2,1
					c0.3,0.4,0.4,1.1,0.2,1.4C-27.3,81.4-27,81-27,81z"/>
				<path class="st9" d="M-30.6,71.4c0.8-0.6,2.1-0.1,2.2-1.2c0.1-1.2,0.4-1.5-1.4-1.6c-1.8-0.1-1.8-0.1-2.9,0
					c-1.1,0.1-2.2-1-1.3,0.7c0.9,1.7,1,2,1.7,2.2C-31.7,71.5-30.6,71.4-30.6,71.4z"/>
				<path class="st9" d="M93.9,66.9c-1-1.1-2.5-1.2-1.3-1.9c1.2-0.7,2-1.1,3.2-1.4c1.2-0.2,2.4,0.2,4.3,0.7c1.9,0.5,5,0.1,6.4,0.5
					c1.4,0.4,2.1,1.3,2.5,1.2c0.4-0.1,1.7-1.4,2.9-1.4c1.2,0,1.9-0.2,4.4,0.1c2.5,0.3,5,0.4,5.1,1.1c0.1,0.6,0.1,0.9,1,0.9
					c0.9,0,1.7-0.6,2.3,0.3c0.6,0.9,1.4,1.5,1.3,0.8c-0.1-0.7-0.7-1.2-0.2-1.5c0.5-0.2,1.9-0.4,2.3-0.2c0.4,0.1,1.5,0.3,1.9,0.2
					c0.4-0.1,0.1-0.7,1.4-0.3c1.2,0.4,1.4,1.3,1.7,1.4c0.2,0.1,0.8-1,0.9-1.6c0.1-0.7,0.6-0.7-0.5-1.5c-1.1-0.9-0.1-1.9,0.7-1.5
					c0.8,0.4,0.3,0.9,1.1,1.7c0.8,0.8,0.9,1.5,1.5,1.2c0.6-0.2,0.2-1.3,1-0.5s0.9,0.4,1.6,0.3c0.7-0.1,0.1-0.6,0.9-0.1
					c0.8,0.4,2.2,0.9,1.2,1.7c-1,0.8-2.5,0.7-3.5,1.3c-1.1,0.6-0.7,0.4-1.1,1.2c-0.3,0.7-0.2,0.8-1.4,1.1c-1.2,0.3-1.6,0.1-1.5,1.1
					c0.1,1.1-0.1,1.2-0.5,1.7c-0.4,0.6-0.2,1.1,0.3,1.3c0.5,0.2,1.1-0.2,1.1,0.6c0,0.7,0.9,1.3,2.2,1.3c1.2,0,1.8,0.3,2.5,1.2
					c0.7,0.9-0.3,1,0.9,2.2c1.2,1.2,2.4,1.7,2.6,0.7c0.2-1.1,0-1.3,0.2-2.5c0.2-1.2,1.4-1.4,0.7-2.5c-0.6-1.1-1.5-1.6-0.7-2.2
					c0.9-0.6-0.2-1.2,1.3-1.5c1.5-0.3,2.5-0.5,3.1,0.6c0.6,1.1-0.1,1.9,0.6,2.4c0.6,0.5,2.5-0.2,2.9-0.7s1.4-0.4,1.8,1.2
					s0.6,2,1.2,2.2c0.6,0.2,0.6,0.6,1.2,1.2c0.7,0.6,2,1.6,0,1.8c-2,0.2-3.6-0.1-4.3,0.6c-0.7,0.7-0.8,0.2-0.3,1.1
					c0.5,0.9,0.1,0.3,0.5,1.5c0.4,1.2,2.2,1.2,0.9,2s-1.1,1-1.9,0.7c-0.8-0.2-1-2-1.9-0.6c-0.9,1.4-0.8,2-1.6,2.4
					c-0.8,0.4-0.9-0.4-1.6,0.9c-0.7,1.4,0.4,1.5-1.2,3c-1.7,1.5-2.5,0.8-2.6,2.1c-0.1,1.3,0.7,2.8,0.2,3.2c-0.4,0.3-0.4,0.2-0.9-0.6
					c-0.5-0.9-0.2-1.4-2-1.5c-1.7-0.1-1.6-0.6-2.3,0.2s0.2,1-1.7,0.7s-2.2-2.5-2.5,0.1c-0.4,2.7-0.4,3,0.2,3.7
					c0.6,0.7,2.3,2.5,3,1.7c0.7-0.8-0.2-1.8,1.2-1.5c1.4,0.3,1.8-0.1,1.5,0.7c-0.2,0.8-2.2,0.9-0.6,1.7s2.8-0.1,3,1.1
					c0.1,1.2-0.2,1.5-0.1,2.2s0.4,1.2,1.8,1.2c1.4,0,1.4-0.6,1.7,0.2c0.4,0.7,1.5,0.4,2-0.7s0.9-2.2,1.6-1c0.7,1.2,0.9,1.5,1.6,1
					c0.7-0.5,0.7-0.5,0.7-0.5s0.8-0.7,1.5-0.1s1.8-0.1,2,0.8c0.2,0.9-0.1,1,0.9,1.3c1.1,0.3,2.3-0.2,2.9,0.7
					c0.6,0.9-1.1,0.3,0.7,1.4c1.8,1.1,2.4,1.2,2.2,1.9c-0.1,0.7,0.4,0.8,2,1.2s1.4,0.2,2.7,1.2s2.4,0.6,2.8,1.1
					c0.4,0.5,1.2,0.6,0.6,2c-0.6,1.4-1.2,1.1-1.7,2.1c-0.5,1.1-0.9,1.3-0.8,3.2c0.1,1.9,0.2,1.7-0.2,2.6s-1.7,1.1-2.8,1.7
					c-1.1,0.7-1.2,0.1-1.9,2c-0.7,1.9-0.3,0.9-0.9,2.5s0.2,0.8-1.5,1.7c-1.8,0.9-2.5,0.1-2.7,0.7c-0.2,0.6,1.1,0.1-0.2,1.3
					c-1.3,1.2-1.9,1.5-2.7,2c-0.8,0.5-1.3,1.1-1.1,2.1s1.1,1,0.1,2c-1.1,1-1.5,0-1.8,1.6c-0.3,1.6-0.6,0.9-0.3,2.5
					c0.3,1.7,1.9,1.7,0.4,2.6c-1.5,0.9-3.1,1.4-4-0.9c-0.9-2.2-0.9-3.1-0.9-4.6s-0.2-0.4,0.6-2.9c0.7-2.5-0.5-1.7,0.1-4.5
					c0.6-2.8,0.5-5.8,1.1-7.8c0.6-2,2-1.5,0.6-3.3c-1.4-1.9-1.6-1.5-2.8-2.8c-1.2-1.2-0.4-1-1.1-2.5s-1.1-1.4-1.7-2.5
					c-0.6-1.1-0.9-0.7-0.3-2.6c0.6-1.9-0.7-1.8,0.6-2.4c1.2-0.6,1.1-1.9,0.9-2.4s0.9-0.7-0.8-0.9c-1.7-0.2-2.2,0.3-2.8-0.7
					c-0.6-1.1-0.1-1.2-1.4-1.9c-1.3-0.6-2.7-0.6-3.2-1.1s-0.5-0.5-0.5-0.5s0.9-0.4-1.2-0.6c-2.1-0.2-3.7,0-4.7-1.5
					c-1.1-1.5-0.8-0.6-1.1-2c-0.2-1.4-0.6-1.4-1.5-2.2c-1-0.9-1-1.4-1.9-1.7c-0.9-0.4-1.1-0.2-1.1-0.1c0,0.2-0.1,0.9,0.8,1.6
					c0.9,0.7,0.9,1.3,0.9,1.6c0,0.3-1.2,0.7-1.2,0.7s0-0.4-0.4-1.2c-0.4-0.9-0.5-1.3-1.2-2.4c-0.7-1.1-0.9-1.2-0.9-1.2
					s-0.9-1.4-2.4-3.2c-1.5-1.8-1.9-0.7-1.9-2.7c0-2,0.4-2,0-3.5s-1.2-2.1-0.5-2.4c0.7-0.2,1.2-0.6-0.2-1.8s-1.9-0.6-2.4-2.2
					c-0.5-1.6,0.6-1.5-1.5-2.2c-2-0.7-2.3-1.4-3.2-1.8c-0.9-0.4-1.5-0.7-1.5-0.7s0.2-0.2-2-0.4s-2-1.2-3.7-0.6
					c-1.7,0.7-1.9,0.8-1.9,0.8s0.9-1.1-0.7-1c-1.6,0.1-1.2,0.5-1.3,1.2c-0.1,0.7,0.2,1.6-0.9,2c-1.1,0.4-2.7,1.6-2.1,0.4
					c0.6-1.2,2.2-2.1,1.6-2.4c-0.6-0.3-1.7,0.7-1.9-0.3c-0.1-1,0.1-1.5-1.2-1.5c-1.3-0.1-2.4-0.6-1.4-1.1c1-0.4,1.9-0.2,2.2-1.3
					c0.3-1.1,2.6-1.3,0.1-1.2c-2.5,0.1-3.7,0.1-3.3-0.4c0.3-0.5,0.2-1.4,2-1.2C94.4,68.2,94.4,67.4,93.9,66.9z"/>
			</g>
			<g>
				<path class="st10" d="M-7.5,119.7c-0.3-0.6-0.6-1.1-1.1-1.5c-0.5-0.4-1-0.7-1.6-1c-0.6-0.2-1.2-0.3-1.9-0.3
					c-0.7,0-1.3,0.1-1.9,0.3c-0.1,0-0.2,0.1-0.2,0.1c-0.5,0.2-1,0.5-1.3,0.9c-0.5,0.4-0.8,0.9-1.1,1.5c-0.3,0.6-0.4,1.3-0.4,2v6.9
					c0,0.8,0.1,1.5,0.4,2.1c0.3,0.6,0.6,1.1,1.1,1.5c0.4,0.4,1,0.7,1.6,0.9c0.6,0.2,1.2,0.3,1.9,0.3c0.3,0,0.6,0,1-0.1
					c0.3-0.1,0.6-0.1,0.9-0.2c0.6-0.2,1.1-0.5,1.6-0.9c0.4-0.4,0.8-0.9,1.1-1.5c0.3-0.6,0.4-1.3,0.4-2.1v-6.9
					C-7.1,120.9-7.3,120.2-7.5,119.7z M-10.1,128.5c0,0.7-0.2,1.2-0.5,1.6c-0.3,0.3-0.7,0.5-1.3,0.6h-0.2c-0.6,0-1.1-0.2-1.5-0.6
					c-0.3-0.4-0.5-0.9-0.5-1.6v-6.8c0-0.1,0-0.2,0-0.3c0,0,0-0.1,0-0.1c0-0.5,0.2-0.9,0.5-1.2c0.1-0.1,0.1-0.1,0.2-0.2
					c0.3-0.3,0.7-0.4,1.3-0.4c0.6,0,1.1,0.2,1.4,0.6c0.3,0.4,0.5,1,0.5,1.6L-10.1,128.5L-10.1,128.5z"/>
				<path class="st10" d="M0.4,117l-3.3,2.9v3.2l3.3-2.9v13.1h3V117H0.4L0.4,117z"/>
				<path class="st10" d="M8.8,117v5.2h2.8v-2.6H16l-5.3,13.6h3.2l5.3-13.6V117L8.8,117L8.8,117z"/>
				<path class="st10" d="M31.4,119.7c-0.3-0.6-0.6-1.1-1.1-1.5c-0.5-0.4-1-0.7-1.6-1c-0.6-0.2-1.2-0.3-1.9-0.3
					c-0.7,0-1.3,0.1-1.9,0.3c-0.6,0.2-1.1,0.5-1.6,1c-0.5,0.4-0.9,0.9-1.1,1.5c-0.3,0.6-0.4,1.3-0.4,2v6.9c0,0.8,0.1,1.5,0.4,2.1
					c0.2,0.6,0.6,1.1,1.1,1.5c0.4,0.4,1,0.7,1.6,0.9c0.6,0.2,1.2,0.3,1.9,0.3c0.6,0,1.3-0.1,1.9-0.3c0.6-0.2,1.1-0.5,1.6-0.9
					c0.4-0.4,0.8-0.9,1.1-1.5c0.3-0.6,0.4-1.3,0.4-2.1v-6.9C31.8,120.9,31.7,120.2,31.4,119.7z M28.8,128.5c0,0.7-0.2,1.2-0.5,1.6
					c-0.4,0.4-0.9,0.6-1.4,0.6c-0.6,0-1.1-0.2-1.5-0.6c-0.3-0.4-0.5-0.9-0.5-1.6v-6.8c0-0.7,0.2-1.2,0.5-1.6
					c0.4-0.4,0.9-0.6,1.5-0.6c0.6,0,1.1,0.2,1.4,0.6c0.3,0.4,0.5,1,0.5,1.6V128.5z"/>
				<path class="st10" d="M56.3,126.3c-0.2-0.6-0.5-1.1-1-1.5c-0.4-0.4-0.9-0.7-1.4-1c-0.5-0.2-1.1-0.3-1.6-0.3c-0.2,0-0.4,0-0.6,0
					c-0.2,0-0.4,0.1-0.6,0.2l1.1-2.2l2.2-4.5h-3.2l-0.3,0.7v0l-0.4,0.8l-2.7,5.5c0,0.1-0.1,0.1-0.1,0.2c-0.3,0.7-0.6,1.3-0.9,2
					c-0.3,0.7-0.4,1.4-0.4,2.2c0,0.8,0.1,1.5,0.4,2.1c0.3,0.6,0.6,1.2,1.1,1.6c0.3,0.3,0.7,0.6,1.1,0.8h0c0.1,0.1,0.3,0.1,0.4,0.2
					c0.6,0.2,1.3,0.3,2,0.3c0.7,0,1.4-0.1,2-0.3c0.6-0.2,1.2-0.5,1.6-1l0,0c0.4-0.4,0.8-0.9,1-1.6c0.3-0.6,0.4-1.3,0.4-2.1
					C56.7,127.6,56.6,126.9,56.3,126.3z M51.6,126c0.6,0,1.2,0.2,1.5,0.6c0.4,0.4,0.6,1,0.6,1.7c0,0.7-0.2,1.4-0.6,1.8
					c-0.4,0.4-0.9,0.6-1.5,0.6c-0.6,0-1.1-0.2-1.5-0.6c-0.4-0.4-0.6-1-0.6-1.8c0-0.7,0.2-1.4,0.6-1.8C50.5,126.2,51,126,51.6,126z"
					/>
				<path class="st10" d="M69.5,125.5c-0.1-0.7-0.5-1.4-1.2-2c-0.3-0.3-0.7-0.6-1.3-0.8c-0.5-0.2-1.1-0.3-1.8-0.3
					c-0.5,0-1,0.1-1.5,0.3c-0.4,0.2-0.7,0.3-1,0.5v-3.5h6.6V117h-9.3v9.2h2.7c0.1-0.3,0.3-0.6,0.6-0.9c0.2-0.2,0.4-0.3,0.8-0.4
					c0.2-0.1,0.4-0.1,0.6-0.1c0.7,0,1.3,0.3,1.5,0.7c0.3,0.5,0.5,1.2,0.5,2.2c0,0.5-0.1,1-0.1,1.4c0,0.1,0,0.1-0.1,0.1c0,0,0,0,0,0
					c-0.1,0.3-0.2,0.6-0.4,0.8c-0.4,0.4-0.8,0.5-1.4,0.5c-0.6,0-1.1-0.2-1.4-0.5c-0.3-0.3-0.5-0.8-0.6-1.5h-3
					c0.1,0.6,0.2,1.2,0.3,1.7c0.2,0.6,0.5,1.1,1,1.6c0.3,0.4,0.9,0.6,1.5,0.9c0.6,0.3,1.3,0.4,2.2,0.4c0.3,0,0.5,0,0.8-0.1h0
					c0.5,0,1-0.1,1.4-0.3c0.6-0.3,1.1-0.6,1.4-0.9c0.6-0.6,1-1.3,1.2-1.9c0.2-0.7,0.3-1.5,0.3-2.4C69.7,127,69.6,126.3,69.5,125.5z"
					/>
				<path class="st10" d="M72.6,117v5.2h2.8v-2.6h4.3l-5.3,13.6h3.2l5.3-13.6V117L72.6,117L72.6,117z"/>
				<path class="st10" d="M95.3,119.8c-0.2-0.6-0.6-1.2-1.1-1.6c-0.5-0.4-1-0.7-1.6-1c-0.6-0.2-1.3-0.3-2-0.3c-0.7,0-1.4,0.1-2,0.3
					c-0.6,0.2-1.2,0.6-1.6,1c-0.4,0.4-0.8,1-1.1,1.6c-0.3,0.6-0.4,1.4-0.4,2.1s0.1,1.5,0.4,2c0.2,0.6,0.6,1.1,1,1.5
					c0.4,0.4,0.9,0.7,1.4,1c0.5,0.2,1.1,0.3,1.6,0.3c0.2,0,0.4,0,0.6,0c0.2,0,0.4-0.1,0.6-0.2l-3.4,6.7h3.2l3.4-7
					c0.4-0.7,0.7-1.5,1-2.2c0.3-0.7,0.4-1.4,0.4-2.2C95.7,121.1,95.6,120.4,95.3,119.8z M92.2,123.7c-0.4,0.4-0.9,0.6-1.5,0.6
					c-0.6,0-1.2-0.2-1.5-0.6c-0.4-0.4-0.6-1-0.6-1.7c0-0.8,0.2-1.4,0.6-1.8c0.4-0.4,0.9-0.6,1.5-0.6c0.6,0,1.1,0.2,1.5,0.6
					c0.4,0.4,0.6,1,0.6,1.8C92.8,122.7,92.6,123.3,92.2,123.7z"/>
				<path class="st10" d="M114.8,117l-3.3,2.9v3.2l3.3-2.9v13.1h3V117H114.8L114.8,117z"/>
				<path class="st10" d="M123.3,117v5.2h2.9v-2.6h4.3l-5.3,13.6h3.2l5.3-13.6V117L123.3,117L123.3,117z"/>
				<path class="st10" d="M140.8,117l-3.3,2.9v3.2l3.3-2.9v13.1h3V117H140.8L140.8,117z"/>
				<path class="st10" d="M159,119.8c-0.2-0.6-0.6-1.2-1.1-1.6c-0.5-0.4-1-0.7-1.6-1c-0.6-0.2-1.3-0.3-2-0.3c-0.7,0-1.4,0.1-2,0.3
					c-0.6,0.2-1.2,0.6-1.6,1c-0.4,0.4-0.8,1-1.1,1.6c-0.3,0.6-0.4,1.4-0.4,2.1s0.1,1.5,0.4,2c0.2,0.6,0.6,1.1,1,1.5
					c0.4,0.4,0.9,0.7,1.4,1c0.5,0.2,1.1,0.3,1.6,0.3c0.2,0,0.4,0,0.6,0c0.2,0,0.4-0.1,0.6-0.2l-3.4,6.7h3.2l3.4-7
					c0.4-0.7,0.7-1.5,1-2.2c0.3-0.7,0.4-1.4,0.4-2.2C159.4,121.1,159.3,120.4,159,119.8z M155.9,123.7c-0.4,0.4-0.9,0.6-1.5,0.6
					c-0.6,0-1.2-0.2-1.5-0.6c-0.4-0.4-0.6-1-0.6-1.7c0-0.8,0.2-1.4,0.6-1.8c0.4-0.4,0.9-0.6,1.5-0.6c0.6,0,1.1,0.2,1.5,0.6
					c0.4,0.4,0.6,1,0.6,1.8C156.4,122.7,156.3,123.3,155.9,123.7z"/>
			</g>
			<g>
				<path class="st10" d="M99.1,159.8c-0.2-0.4-0.5-0.8-0.8-1.1c-0.3-0.3-0.7-0.5-1.2-0.7c-0.4-0.2-0.9-0.2-1.4-0.2
					c-0.5,0-1,0.1-1.4,0.2c-0.4,0.1-0.8,0.4-1.2,0.7c-0.3,0.3-0.6,0.7-0.8,1.1c-0.2,0.4-0.3,1-0.3,1.5v5c0,0.6,0.1,1.1,0.3,1.5
					c0.2,0.4,0.5,0.8,0.8,1.1c0.3,0.3,0.7,0.5,1.2,0.7c0.4,0.2,0.9,0.2,1.4,0.2c0.5,0,1-0.1,1.4-0.2c0.4-0.1,0.8-0.4,1.2-0.7
					c0.3-0.3,0.6-0.7,0.8-1.1c0.2-0.4,0.3-1,0.3-1.5v-5C99.4,160.8,99.4,160.3,99.1,159.8z M97.2,166.4c0,0.5-0.1,0.9-0.4,1.2
					c-0.3,0.3-0.6,0.4-1.1,0.4c-0.4,0-0.8-0.1-1.1-0.4c-0.3-0.3-0.4-0.7-0.4-1.2v-5c0-0.5,0.1-0.9,0.4-1.2c0.3-0.3,0.6-0.4,1.1-0.4
					c0.4,0,0.8,0.1,1.1,0.4c0.2,0.3,0.4,0.7,0.4,1.2V166.4z"/>
				<path class="st10" d="M108.9,164.2c-0.1-0.5-0.4-1.1-0.9-1.5c-0.2-0.2-0.5-0.4-0.9-0.6c-0.4-0.2-0.8-0.2-1.3-0.2
					c-0.4,0-0.7,0.1-1.1,0.2c-0.3,0.1-0.6,0.2-0.7,0.4v-2.6h4.8v-1.9H102v6.7h2c0.1-0.2,0.2-0.4,0.4-0.6c0.2-0.2,0.5-0.3,1-0.3
					c0.5,0,0.9,0.2,1.1,0.6c0.2,0.4,0.3,0.9,0.3,1.6c0,0.4,0,0.7-0.1,1c-0.1,0.3-0.2,0.5-0.4,0.7c-0.3,0.3-0.6,0.4-1.1,0.4
					s-0.8-0.1-1-0.4c-0.2-0.3-0.4-0.6-0.4-1.1h-2.2c0,0.4,0.1,0.9,0.2,1.3c0.1,0.4,0.4,0.8,0.7,1.2c0.2,0.2,0.6,0.5,1.1,0.7
					c0.4,0.2,1,0.3,1.6,0.3c0.6,0,1.2-0.1,1.6-0.3c0.4-0.2,0.8-0.4,1.1-0.7c0.4-0.4,0.7-0.9,0.9-1.4c0.1-0.5,0.2-1.1,0.2-1.7
					C109.1,165.3,109,164.7,108.9,164.2z"/>
				<path class="st10" d="M115.1,156.6l-4.8,14.5h2l4.8-14.5H115.1z"/>
				<path class="st10" d="M121.7,157.9l-2.4,2.1v2.3l2.4-2.1v9.6h2.2v-11.9L121.7,157.9L121.7,157.9z"/>
				<path class="st10" d="M131.2,157.9l-2.5,2.1v2.3l2.5-2.1v9.6h2.2v-11.9L131.2,157.9L131.2,157.9z"/>
				<path class="st10" d="M137.6,164v2h5.2v-2H137.6z"/>
				<path class="st10" d="M152.1,159.8c-0.2-0.4-0.5-0.8-0.8-1.1c-0.3-0.3-0.7-0.5-1.2-0.7c-0.4-0.2-0.9-0.2-1.4-0.2
					c-0.5,0-1,0.1-1.4,0.2c-0.4,0.1-0.8,0.4-1.2,0.7c-0.3,0.3-0.6,0.7-0.8,1.1c-0.2,0.4-0.3,1-0.3,1.5v5c0,0.6,0.1,1.1,0.3,1.5
					c0.2,0.4,0.5,0.8,0.8,1.1c0.3,0.3,0.7,0.5,1.2,0.7c0.4,0.2,0.9,0.2,1.4,0.2c0.5,0,0.9-0.1,1.4-0.2c0.4-0.1,0.9-0.4,1.2-0.7
					c0.3-0.3,0.6-0.7,0.8-1.1c0.2-0.4,0.3-1,0.3-1.5v-5C152.3,160.8,152.2,160.3,152.1,159.8z M150.2,166.4c0,0.5-0.1,0.9-0.4,1.2
					c-0.2,0.3-0.6,0.4-1,0.4c-0.4,0-0.8-0.1-1.1-0.4c-0.3-0.3-0.4-0.7-0.4-1.2v-5c0-0.5,0.1-0.9,0.4-1.2c0.2-0.3,0.6-0.4,1.1-0.4
					c0.4,0,0.8,0.1,1,0.4c0.3,0.3,0.4,0.7,0.4,1.2V166.4z"/>
				<path class="st10" d="M161.6,159.8c-0.2-0.4-0.5-0.8-0.8-1.1c-0.3-0.3-0.7-0.5-1.2-0.7c-0.4-0.2-0.9-0.2-1.4-0.2
					c-0.5,0-1,0.1-1.4,0.2c-0.4,0.1-0.8,0.4-1.2,0.7c-0.3,0.3-0.6,0.7-0.8,1.1c-0.2,0.4-0.3,1-0.3,1.5v5c0,0.6,0.1,1.1,0.3,1.5
					c0.2,0.4,0.5,0.8,0.8,1.1c0.3,0.3,0.7,0.5,1.2,0.7c0.4,0.2,0.9,0.2,1.4,0.2c0.5,0,1-0.1,1.4-0.2c0.4-0.1,0.8-0.4,1.2-0.7
					c0.3-0.3,0.6-0.7,0.8-1.1s0.3-1,0.3-1.5v-5C161.9,160.8,161.8,160.3,161.6,159.8z M159.7,166.4c0,0.5-0.1,0.9-0.4,1.2
					c-0.3,0.3-0.6,0.4-1.1,0.4c-0.4,0-0.8-0.1-1.1-0.4c-0.3-0.3-0.4-0.7-0.4-1.2v-5c0-0.5,0.1-0.9,0.4-1.2c0.3-0.3,0.6-0.4,1.1-0.4
					c0.4,0,0.8,0.1,1.1,0.4c0.2,0.3,0.4,0.7,0.4,1.2V166.4z"/>
			</g>
			<g>
				<path class="st10" d="M-15.3,137.5v1.1h1.6v5.1h1.2v-5.1h1.6v-1.1H-15.3z"/>
				<path class="st10" d="M-5.3,139.1c-0.1-0.2-0.1-0.4-0.2-0.5c-0.1-0.2-0.2-0.3-0.4-0.5c-0.2-0.2-0.4-0.4-0.7-0.5
					c-0.3-0.1-0.6-0.2-0.9-0.2c-0.4,0-0.7,0.1-1,0.2c-0.3,0.1-0.5,0.3-0.7,0.5c-0.2,0.2-0.3,0.3-0.4,0.5c-0.1,0.2-0.1,0.3-0.2,0.5
					c0,0.2,0,0.4-0.1,0.7v1.6c0,0.2,0,0.4,0.1,0.6c0.1,0.2,0.1,0.4,0.2,0.6c0.1,0.1,0.2,0.3,0.4,0.5c0.2,0.2,0.4,0.4,0.7,0.5
					c0.3,0.1,0.6,0.2,1,0.2c0.3,0,0.6,0,0.9-0.2c0.3-0.1,0.5-0.3,0.7-0.5c0.2-0.2,0.3-0.3,0.4-0.5c0.1-0.2,0.1-0.4,0.2-0.6
					c0-0.2,0.1-0.4,0.1-0.6v-1.6C-5.2,139.5-5.3,139.3-5.3,139.1z M-6.5,141.3c0,0.2,0,0.3-0.1,0.5c0,0.1,0,0.2-0.1,0.3
					c0,0.1-0.1,0.1-0.2,0.2c-0.1,0.1-0.2,0.2-0.3,0.2c-0.1,0.1-0.3,0.1-0.4,0.1s-0.3,0-0.5-0.1c-0.1,0-0.2-0.1-0.3-0.2
					c0-0.1-0.1-0.1-0.1-0.2c0-0.1-0.1-0.2-0.1-0.3c0-0.1-0.1-0.3-0.1-0.5v-1.5c0-0.2,0-0.3,0.1-0.5c0-0.1,0-0.2,0.1-0.3
					c0-0.1,0.1-0.1,0.1-0.2c0.1-0.1,0.2-0.2,0.3-0.2c0.1-0.1,0.3-0.1,0.5-0.1c0.2,0,0.3,0,0.4,0.1s0.2,0.1,0.3,0.2
					c0.1,0.1,0.1,0.1,0.2,0.2c0,0.1,0.1,0.2,0.1,0.3c0,0.1,0.1,0.3,0.1,0.5V141.3z"/>
				<path class="st10" d="M0.5,138.6c-0.1-0.2-0.2-0.4-0.4-0.6c-0.2-0.2-0.4-0.3-0.6-0.4c-0.2-0.1-0.5-0.1-0.9-0.1h-2.4v6.2h1.2
					v-2.3h1.2c0.3,0,0.6-0.1,0.9-0.2c0.3-0.1,0.5-0.2,0.6-0.4c0.2-0.2,0.3-0.4,0.4-0.6c0.1-0.2,0.1-0.5,0.1-0.7
					C0.7,139.1,0.6,138.9,0.5,138.6z M-0.8,140c-0.2,0.1-0.4,0.2-0.7,0.2h-1.1v-1.7h1.1c0.3,0,0.5,0.1,0.7,0.2
					c0.1,0.2,0.2,0.4,0.2,0.6C-0.5,139.6-0.6,139.8-0.8,140z"/>
				<path class="st10" d="M6,138.5v-1.1H1.9v6.2H6v-1.1H3.2v-1.5h2.4V140H3.2v-1.4H6z"/>
				<path class="st10" d="M10.2,142.4c-0.2,0.2-0.4,0.2-0.7,0.2c-0.2,0-0.3,0-0.4-0.1c-0.1-0.1-0.2-0.1-0.3-0.2
					c0-0.1-0.1-0.1-0.1-0.2c0-0.1-0.1-0.2-0.1-0.3c0-0.1,0-0.3,0-0.5c0-0.2,0-0.4,0-0.7c0-0.3,0-0.5,0-0.7c0-0.2,0-0.3,0-0.5
					c0-0.1,0.1-0.2,0.1-0.3c0-0.1,0.1-0.2,0.1-0.2c0.1-0.1,0.2-0.2,0.3-0.2c0.1-0.1,0.3-0.1,0.4-0.1c0.3,0,0.5,0.1,0.7,0.2
					c0.2,0.2,0.3,0.4,0.3,0.6h1.2c-0.1-0.6-0.4-1.2-0.8-1.5c-0.4-0.3-0.9-0.5-1.5-0.5c-0.3,0-0.7,0.1-1,0.2
					c-0.2,0.1-0.5,0.3-0.7,0.5c-0.1,0.2-0.3,0.3-0.4,0.5c-0.1,0.2-0.1,0.3-0.2,0.5c0,0.2-0.1,0.4-0.1,0.7v1.6c0,0.2,0,0.4,0.1,0.6
					c0,0.2,0.1,0.4,0.2,0.6c0.1,0.1,0.2,0.3,0.4,0.5c0.2,0.2,0.5,0.4,0.7,0.5c0.3,0.1,0.6,0.2,1,0.2c0.6,0,1.1-0.2,1.5-0.5
					c0.4-0.3,0.7-0.8,0.8-1.5h-1.2C10.5,142,10.4,142.2,10.2,142.4z"/>
				<path class="st10" d="M17.4,139.8c0-0.2,0-0.5-0.1-0.7c0-0.2-0.1-0.4-0.2-0.5c-0.1-0.2-0.2-0.3-0.3-0.5
					c-0.2-0.2-0.4-0.4-0.7-0.5c-0.3-0.1-0.6-0.2-1-0.2c-0.4,0-0.7,0.1-1,0.2c-0.3,0.1-0.5,0.3-0.7,0.5c-0.2,0.2-0.3,0.3-0.4,0.5
					c-0.1,0.2-0.1,0.3-0.2,0.5c0,0.2-0.1,0.4-0.1,0.7c0,0.2,0,0.5,0,0.8c0,0.3,0,0.6,0,0.8s0,0.4,0.1,0.6c0,0.2,0.1,0.4,0.2,0.6
					c0.1,0.1,0.2,0.3,0.4,0.5c0.2,0.2,0.4,0.4,0.7,0.5c0.3,0.1,0.6,0.2,1,0.2s0.7,0,1-0.2c0.3-0.1,0.5-0.3,0.7-0.5
					c0.1-0.2,0.3-0.3,0.3-0.5c0.1-0.2,0.2-0.4,0.2-0.6c0-0.2,0.1-0.4,0.1-0.6c0-0.2,0-0.5,0-0.8C17.5,140.2,17.4,140,17.4,139.8z
					 M16.2,141.3c0,0.2,0,0.3,0,0.5c0,0.1-0.1,0.2-0.1,0.3c0,0.1-0.1,0.1-0.1,0.2c-0.1,0.1-0.2,0.2-0.3,0.2
					c-0.1,0.1-0.3,0.1-0.4,0.1s-0.3,0-0.4-0.1c-0.1,0-0.2-0.1-0.3-0.2c-0.1-0.1-0.1-0.1-0.1-0.2c-0.1-0.1-0.1-0.2-0.1-0.3
					c0-0.1,0-0.3-0.1-0.5v-1.5c0-0.2,0-0.3,0.1-0.5c0-0.1,0-0.2,0.1-0.3c0-0.1,0.1-0.1,0.1-0.2c0.1-0.1,0.2-0.2,0.3-0.2
					c0.1-0.1,0.3-0.1,0.4-0.1s0.3,0,0.4,0.1c0.1,0.1,0.2,0.1,0.3,0.2c0.1,0.1,0.1,0.1,0.1,0.2c0,0.1,0.1,0.2,0.1,0.3
					c0,0.1,0,0.3,0,0.5c0,0.2,0,0.4,0,0.7C16.3,140.9,16.3,141.1,16.2,141.3z"/>
				<path class="st10" d="M22.5,137.5v3.8l-2.5-3.8h-1.1v6.2h1.2v-3.8l2.5,3.8h1.1v-6.2H22.5z"/>
				<path class="st10" d="M32,141.3c-0.1-0.2-0.2-0.3-0.3-0.5c-0.1-0.1-0.1-0.1-0.2-0.2c-0.1-0.1-0.1-0.1-0.3-0.2
					c0.5-0.3,0.8-0.7,0.8-1.3c0-0.3-0.1-0.5-0.1-0.7c-0.1-0.2-0.2-0.4-0.4-0.5c-0.1-0.1-0.2-0.2-0.4-0.2c0,0-0.1-0.1-0.2-0.1
					c-0.3-0.1-0.5-0.1-0.8-0.1h-2.5v6.2h2.6c0.3,0,0.6-0.1,0.8-0.1c0.2-0.1,0.4-0.2,0.6-0.4c0.2-0.1,0.3-0.3,0.4-0.5
					c0.1-0.2,0.1-0.5,0.1-0.7C32.1,141.7,32.1,141.5,32,141.3z M28.8,138.5H30c0.1,0,0.1,0,0.2,0c0.2,0,0.3,0,0.4,0.1
					c0.1,0.1,0.2,0.3,0.2,0.5c0,0.2-0.1,0.4-0.2,0.5c-0.2,0.1-0.3,0.2-0.6,0.2h-1.2V138.5z M30.7,142.4c-0.1,0.1-0.3,0.2-0.6,0.2
					h-1.3v-1.5h1.3c0.2,0,0.4,0.1,0.6,0.2c0.1,0.1,0.2,0.3,0.2,0.5C30.9,142,30.8,142.2,30.7,142.4z"/>
				<path class="st10" d="M36.1,137.5h-1l-2.3,6.2h1.3l0.4-1.1h2.2l0.4,1.1h1.3L36.1,137.5z M34.9,141.5l0.8-2.2l0.7,2.2H34.9z"/>
				<path class="st10" d="M42.9,137.5v3.8l-2.5-3.8h-1.1v6.2h1.2v-3.8l2.5,3.8h1.1v-6.2H42.9z"/>
				<path class="st10" d="M48.7,139.9l2-2.4h-1.5l-2.2,2.7v-2.7h-1.2v6.2H47v-1.9l0.8-1l1.6,2.9h1.4L48.7,139.9z"/>
			</g>
			<g>
				<path class="st10" d="M113.6,98.5c-0.2,0.2-0.4,0.2-0.7,0.2c-0.2,0-0.3,0-0.4-0.1c-0.1,0-0.2-0.1-0.3-0.2c0-0.1-0.1-0.1-0.1-0.2
					c0-0.1-0.1-0.2-0.1-0.3c0-0.1,0-0.3,0-0.5c0-0.2,0-0.4,0-0.7c0-0.3,0-0.5,0-0.7s0-0.3,0-0.5c0-0.1,0.1-0.2,0.1-0.3
					c0-0.1,0.1-0.2,0.1-0.2c0.1-0.1,0.2-0.2,0.3-0.2c0.1,0,0.3-0.1,0.4-0.1c0.3,0,0.5,0.1,0.7,0.2c0.2,0.2,0.3,0.4,0.3,0.6h1.2
					c-0.1-0.7-0.4-1.2-0.8-1.5c-0.4-0.3-0.9-0.5-1.5-0.5c-0.3,0-0.7,0.1-0.9,0.2c-0.3,0.1-0.5,0.3-0.7,0.5c-0.1,0.2-0.3,0.3-0.3,0.5
					c-0.1,0.1-0.2,0.3-0.2,0.5c0,0.2-0.1,0.4-0.1,0.6v1.6c0,0.2,0,0.4,0.1,0.6c0,0.2,0.1,0.4,0.2,0.5c0.1,0.2,0.2,0.3,0.3,0.5
					c0.2,0.2,0.5,0.4,0.7,0.5c0.2,0.1,0.6,0.2,0.9,0.2c0.6,0,1.1-0.2,1.5-0.5c0.4-0.3,0.7-0.8,0.8-1.5H114
					C113.9,98.1,113.8,98.3,113.6,98.5z"/>
				<path class="st10" d="M119.8,97c0.2,0,0.3-0.1,0.4-0.2c0.1-0.1,0.3-0.2,0.4-0.3c0.1-0.1,0.2-0.3,0.2-0.5c0-0.1,0.1-0.2,0.1-0.4
					c0-0.1,0-0.2,0-0.2c0-0.2-0.1-0.5-0.1-0.7c-0.1-0.2-0.2-0.4-0.4-0.6c-0.2-0.2-0.4-0.3-0.6-0.4c-0.1-0.1-0.2-0.1-0.4-0.1h0
					c-0.1,0-0.3,0-0.4,0h-2.4v6.2h1.2v-2.5h0.9l1.2,2.5h1.4L119.8,97z M119.5,96c-0.2,0.1-0.4,0.2-0.6,0.2h-1.2v-1.7h1.2
					c0.3,0,0.5,0.1,0.6,0.2c0.2,0.1,0.2,0.3,0.2,0.6C119.7,95.7,119.7,95.8,119.5,96z"/>
				<path class="st10" d="M126.5,94.6v-1.1h-4.1v6.2h4.1v-1.1h-2.9v-1.5h2.5V96h-2.5v-1.5L126.5,94.6L126.5,94.6z"/>
				<path class="st10" d="M132.4,95.5c0-0.1,0-0.1,0-0.2c0-0.2-0.1-0.3-0.1-0.5c-0.1-0.2-0.1-0.3-0.2-0.4c-0.2-0.3-0.5-0.5-0.8-0.7
					c-0.3-0.1-0.6-0.2-1.1-0.2h-2.2v6.2h2.2c0.4,0,0.8-0.1,1.1-0.2c0.2-0.1,0.3-0.2,0.4-0.3c0.1-0.1,0.2-0.2,0.3-0.4
					c0.1-0.1,0.2-0.3,0.2-0.4c0-0.1,0.1-0.3,0.1-0.5c0-0.2,0-0.4,0.1-0.6v-1.4C132.4,95.8,132.4,95.6,132.4,95.5z M131.2,97.3
					c0,0.2,0,0.3,0,0.4c0,0.1,0,0.2-0.1,0.3c0,0.1-0.1,0.2-0.1,0.2c-0.2,0.3-0.5,0.4-0.9,0.4h-0.9v-4h0.9c0.4,0,0.7,0.1,0.9,0.4
					c0,0.1,0.1,0.1,0.1,0.2c0,0.1,0,0.2,0.1,0.3c0,0.1,0,0.3,0,0.4V97.3z"/>
				<path class="st10" d="M133.9,93.5v6.2h1.2v-6.2H133.9z"/>
				<path class="st10" d="M136.3,93.5v1.1h1.6v5.1h1.2v-5.1h1.6v-1.1H136.3z"/>
				<path class="st10" d="M147.1,98.5c-0.2,0.2-0.4,0.2-0.7,0.2c-0.2,0-0.3,0-0.4-0.1c-0.1,0-0.2-0.1-0.3-0.2c0-0.1-0.1-0.1-0.1-0.2
					c0-0.1-0.1-0.2-0.1-0.3c0-0.1,0-0.3,0-0.5c0-0.2,0-0.4,0-0.7c0-0.3,0-0.5,0-0.7c0-0.2,0-0.3,0-0.5c0-0.1,0.1-0.2,0.1-0.3
					c0-0.1,0.1-0.2,0.1-0.2c0.1-0.1,0.2-0.2,0.3-0.2c0.1,0,0.3-0.1,0.4-0.1c0.3,0,0.5,0.1,0.7,0.2c0.2,0.2,0.3,0.4,0.3,0.6h1.2
					c-0.1-0.7-0.4-1.2-0.8-1.5c-0.4-0.3-0.9-0.5-1.5-0.5c-0.3,0-0.7,0.1-1,0.2c-0.2,0.1-0.5,0.3-0.7,0.5c-0.2,0.2-0.3,0.3-0.4,0.5
					c-0.1,0.1-0.1,0.3-0.2,0.5c0,0.2-0.1,0.4-0.1,0.6v1.6c0,0.2,0,0.4,0.1,0.6c0,0.2,0.1,0.4,0.2,0.5c0.1,0.2,0.2,0.3,0.4,0.5
					c0.2,0.2,0.5,0.4,0.7,0.5c0.3,0.1,0.6,0.2,1,0.2c0.6,0,1.1-0.2,1.5-0.5c0.4-0.3,0.7-0.8,0.8-1.5h-1.2
					C147.3,98.1,147.2,98.3,147.1,98.5z"/>
				<path class="st10" d="M152.4,93.5h-1l-2.3,6.2h1.3l0.4-1.1h2.2l0.4,1.1h1.3L152.4,93.5z M151.2,97.6l0.8-2.3l0.7,2.3H151.2z"/>
				<path class="st10" d="M159,97c0.2,0,0.3-0.1,0.4-0.2c0.1-0.1,0.3-0.2,0.4-0.3c0.1-0.1,0.2-0.3,0.2-0.5c0.1-0.2,0.1-0.4,0.1-0.6
					c0-0.2,0-0.5-0.1-0.7c-0.1-0.2-0.2-0.4-0.4-0.6c-0.2-0.2-0.4-0.3-0.6-0.4c-0.2-0.1-0.5-0.2-0.8-0.2h-2.5v6.2h1.2v-2.5h0.9
					l1.2,2.5h1.4L159,97z M158.7,96c-0.2,0.1-0.4,0.2-0.6,0.2h-1.1v-1.7h1.1c0.3,0,0.5,0.1,0.6,0.2c0.2,0.1,0.2,0.3,0.2,0.6
					C158.9,95.7,158.9,95.8,158.7,96z"/>
				<path class="st10" d="M166.1,95.3c0-0.2-0.1-0.3-0.1-0.5c0-0.2-0.1-0.3-0.2-0.4c-0.2-0.3-0.5-0.5-0.8-0.7
					c-0.3-0.1-0.6-0.2-1.1-0.2h-2.2v6.2h2.2c0.4,0,0.8-0.1,1.1-0.2c0.3-0.1,0.6-0.4,0.8-0.7c0.1-0.1,0.2-0.3,0.2-0.4
					c0.1-0.1,0.1-0.3,0.1-0.5c0-0.2,0-0.4,0-0.6v-1.4C166.1,95.7,166.1,95.5,166.1,95.3z M164.9,97.3c0,0.2,0,0.3,0,0.4
					c0,0.1,0,0.2-0.1,0.3c0,0.1-0.1,0.2-0.1,0.2c-0.2,0.3-0.5,0.4-0.9,0.4h-0.9v-4h0.9c0.4,0,0.7,0.1,0.9,0.4
					c0.1,0.1,0.1,0.1,0.1,0.2c0,0.1,0.1,0.2,0.1,0.3c0,0.1,0,0.3,0,0.4V97.3z"/>
			</g>
			<g>
				<g>
					<path class="st11" d="M166.8,37.1v24c0,1-0.8,1.8-1.8,1.8h-29.5c-1,0-1.8-0.8-1.8-1.8v-24c0-1,0.8-1.8,1.8-1.8H165
						C166,35.3,166.8,36.1,166.8,37.1z"/>
				</g>
				<path class="st12" d="M160.3,41.2l5.1-5.1h-1.7l-4.4,4.5l-0.7,0.7l-0.5,0.5l-3.5,3.5H147l-0.7-0.7l-2.8-2.8l-1.1-1.2l-4.5-4.5
					h-1.7l4.4,4.5l0.7,0.7h-7v1.2h8.2l2.2,2.2l0.6,0.6v1.4h-11v1.2h11v4.2h-11V53h11v1.4h0.1l-2.1,2.1l-0.7,0.7h-8.2v1.2h7l-4.4,4.4
					h1.7l4.4-4.4l4-4h7.6l8.4,8.4h1.6l-4.4-4.4h6.5v-1.2h-7.7l-2.8-2.8V53h10.4v-1.2h-10.4v-4.2h10.4v-1.2h-10.4v-1.4l2.8-2.8h7.7
					v-1.2L160.3,41.2L160.3,41.2z M155.2,53.2h-8.7v-6.9h8.7V53.2z"/>
				<g>
					<g>
						<path class="st13" d="M146.4,44.5l1.2,1.2h5.3l0.5-0.5l0.7-0.7H146.4z M146.4,44.5l1.2,1.2h5.3l0.5-0.5l0.7-0.7H146.4z
							 M146.4,44.5l1.2,1.2h5.3l0.5-0.5l0.7-0.7H146.4z M146.4,44.5l1.2,1.2h5.3l0.5-0.5l0.7-0.7H146.4z M153.6,53.2l-0.7-0.7h-5.3
							l-0.6,0.7h0l-0.5,0.5h7.6L153.6,53.2z M146.4,44.5l1.2,1.2h5.3l0.5-0.5l0.7-0.7H146.4z M144.7,44.5v9.3h11v-9.3H144.7z
							 M154.6,52.6h-8.7v-6.9h8.7V52.6z M146.4,44.5l1.2,1.2h5.3l0.5-0.5l0.7-0.7H146.4z M146.4,44.5l1.2,1.2h5.3l0.5-0.5l0.7-0.7
							H146.4z M146.4,44.5l1.2,1.2h5.3l0.5-0.5l0.7-0.7H146.4z M146.4,44.5l1.2,1.2h5.3l0.5-0.5l0.7-0.7H146.4z M146.4,44.5l1.2,1.2
							h5.3l0.5-0.5l0.7-0.7H146.4z M146.4,44.5l1.2,1.2h5.3l0.5-0.5l0.7-0.7H146.4z"/>
					</g>
					<g>
						<g>
							<polygon class="st13" points="142.5,40.5 143.6,41.6 133.7,41.6 133.7,40.5 							"/>
							<polygon class="st13" points="166.8,40.5 166.8,41.6 156.9,41.6 158.1,40.5 							"/>
						</g>
						<g>
							<rect x="133.7" y="45.8" class="st13" width="12.2" height="1.2"/>
							<rect x="154.6" y="45.8" class="st13" width="12.2" height="1.2"/>
						</g>
						<g>
							<rect x="133.7" y="51.2" class="st13" width="12.2" height="1.2"/>
							<rect x="154.6" y="51.2" class="st13" width="12.2" height="1.2"/>
						</g>
						<g>
							<polygon class="st13" points="143.6,56.5 142.5,57.7 133.7,57.7 133.7,56.5 							"/>
							<polygon class="st13" points="166.8,56.5 166.8,57.7 158.1,57.7 156.9,56.5 							"/>
						</g>
					</g>
					<g>
						<polygon class="st13" points="147.6,52.6 137.3,62.8 135.7,62.8 146,52.6 						"/>
						<polygon class="st13" points="164.8,35.3 154.6,45.6 152.9,45.6 163.2,35.3 						"/>
					</g>
					<g>
						<polygon class="st13" points="147.6,45.6 146,45.6 135.7,35.3 137.3,35.3 						"/>
						<polygon class="st13" points="164.8,62.8 163.2,62.8 154.1,53.7 153.6,53.2 152.9,52.6 154.6,52.6 155.2,53.2 155.7,53.7 
							156.4,54.4 158.5,56.5 159.2,57.2 159.7,57.7 160.4,58.4 						"/>
					</g>
				</g>
			</g>
			<g>
				<path class="st14" d="M-10.2,45.8c0-3.7,1.5-7,3.9-9.3c-2.4-2.3-5.6-3.7-9.1-3.7c-7.2,0-13,5.8-13,13c0,7.2,5.8,13,13,13
					c3.5,0,6.8-1.4,9.1-3.7C-8.6,52.8-10.2,49.5-10.2,45.8z"/>
				<path class="st15" d="M2.9,32.8c-3.5,0-6.8,1.4-9.1,3.7c2.4,2.4,3.9,5.7,3.9,9.3s-1.5,7-3.9,9.3c2.4,2.3,5.6,3.7,9.1,3.7
					c7.2,0,13-5.8,13-13C15.9,38.6,10.1,32.8,2.9,32.8z"/>
				<path class="st16" d="M-2.3,45.8c0-3.7-1.5-7-3.9-9.3c-2.4,2.4-3.9,5.7-3.9,9.3s1.5,7,3.9,9.3C-3.8,52.8-2.3,49.5-2.3,45.8z"/>
				<g>
					<g>
						<path class="st15" d="M-2.3,45.8c0-0.3,0-0.5,0-0.8l-6-6c-0.4,0.7-0.8,1.5-1.1,2.3l6.9,6.9C-2.4,47.4-2.3,46.6-2.3,45.8z"/>
					</g>
					<path class="st15" d="M-10,44c-0.1,0.6-0.1,1.2-0.1,1.8c0,0.5,0,1,0.1,1.5l5.7,5.7c0.5-0.7,0.8-1.4,1.2-2.2L-10,44z"/>
				</g>
			</g>
			<rect x="-45.5" y="105.2" class="st17" width="229" height="2.9"/>
		</g>
		<path class="st17" d="M183.5,29.2v141c0,4-3.3,7.3-7.3,7.3h-185l36.4-36.4l1.2-1.2l1.4-1.4l0.9-0.9l19-19l1-1v0l0.6-0.6l0.1-0.1
			l2.9-2.9l0.9-0.9l5.2-5.2l2.9-2.9l30.6-30.6l9.8-9.8l42.2-42.2l0.6-0.6h29.4C180.2,21.9,183.5,25.2,183.5,29.2z"/>
	</g>
</g>
</svg>
