<?xml version="1.0" encoding="utf-8"?>
<!-- Generator: Adobe Illustrator 25.0.0, SVG Export Plug-In . SVG Version: 6.00 Build 0)  -->
<svg version="1.1" id="Layer_3" xmlns="http://www.w3.org/2000/svg" xmlns:xlink="http://www.w3.org/1999/xlink" x="0px" y="0px"
	 viewBox="0 0 200 200" style="enable-background:new 0 0 200 200;" xml:space="preserve">
<style type="text/css">
	.st0{clip-path:url(#SVGID_2_);}
	.st1{fill:#D60949;}
	.st2{fill:#B70243;}
	.st3{fill:#FFD31A;}
	.st4{fill:#FF9E1D;}
	.st5{fill:#0A2759;}
	.st6{fill-rule:evenodd;clip-rule:evenodd;fill:#B4DFFB;}
	.st7{fill-rule:evenodd;clip-rule:evenodd;fill:#4796E7;}
	.st8{fill:none;stroke:#B4DFFB;stroke-width:25;stroke-linecap:round;stroke-miterlimit:50;}
	.st9{fill:none;stroke:#FFFFFF;stroke-width:25;stroke-linecap:round;stroke-miterlimit:50;}
</style>
<g>
	<g>
		<defs>
			<circle id="SVGID_1_" cx="100" cy="101" r="78"/>
		</defs>
		<clipPath id="SVGID_2_">
			<use xlink:href="#SVGID_1_"  style="overflow:visible;"/>
		</clipPath>
		<g class="st0">
			<path class="st1" d="M181,172.3c0,4.8-3.9,8.7-8.7,8.7H27.7c-4.8,0-8.7-3.9-8.7-8.7V27.6c0-4.8,3.9-8.7,8.7-8.7h144.7
				c4.8,0,8.7,3.9,8.7,8.7L181,172.3L181,172.3z"/>
			<path class="st2" d="M19,27.6c0-4.8,3.9-8.7,8.7-8.7h144.7c4.8,0,8.7,3.9,8.7,8.7v144.7c0,4.8-3.9,8.7-8.7,8.7"/>
			<polygon class="st3" points="134.5,55.6 103.6,55.6 65.5,111.6 87.8,111.6 65.5,144.4 96.4,144.4 134.5,88.4 112.2,88.4 			"/>
			<polygon class="st4" points="103.6,55.6 80.7,89.3 112.3,121 134.5,88.4 112.2,88.4 134.5,55.6 			"/>
		</g>
	</g>
</g>
<g id="Layer_4">
	<circle class="st5" cx="100.5" cy="101" r="78"/>
</g>
<g>
	<path class="st6" d="M99.5,141.7c14.5,0,26.3-11.8,26.3-26.3S99.5,61.5,99.5,61.5s-26.3,39.4-26.3,53.9S85,141.7,99.5,141.7z"/>
	<path class="st7" d="M120.9,109c10.8,0,19.5-8.7,19.5-19.5s-19.5-39.9-19.5-39.9s-19.5,29.2-19.5,40S110.1,109,120.9,109z"/>
	<path class="st8" d="M107.4,89.8c0,7.4,6,13.3,13.3,13.3l0,0"/>
	<path class="st9" d="M79.1,116.5c0,9.8,8,17.8,17.8,17.8l0,0"/>
</g>
</svg>
